G04 Layer_Color=32896*
%FSAX44Y44*%
%MOMM*%
G71*
G01*
G75*
%ADD56C,0.2500*%
%ADD57C,0.2540*%
%ADD58C,0.2000*%
D56*
X00655017Y00994426D02*
G03*
X00655017Y00994426I-00001247J00000084D01*
G01*
X00802720Y01004850D02*
G03*
X00802720Y01004850I-00001250J00000000D01*
G01*
D57*
X00711200Y01377950D02*
X01066800D01*
X00711200Y01250950D02*
X01066800D01*
X00711200Y01225550D02*
X01066800D01*
X00711200D02*
Y01403350D01*
X01066800D01*
Y01225550D02*
Y01403350D01*
X01028700Y01301750D02*
X01041400Y01289050D01*
X01028700Y01301750D02*
Y01327150D01*
X01041400Y01339850D01*
Y01289050D02*
X01066800D01*
X01041400Y01339850D02*
X01066800D01*
X01115060Y01325875D02*
Y01313179D01*
X01112521Y01310640D01*
X01107442D01*
X01104903Y01313179D01*
Y01325875D01*
X01099825Y01310640D02*
X01094747D01*
X01097286D01*
Y01325875D01*
X01099825Y01323336D01*
X01076972Y01310640D02*
X01087129D01*
X01076972Y01320797D01*
Y01323336D01*
X01079511Y01325875D01*
X01084590D01*
X01087129Y01323336D01*
X00640083Y01092196D02*
X00642623Y01094735D01*
X00647701D01*
X00650240Y01092196D01*
Y01082039D01*
X00647701Y01079500D01*
X00642623D01*
X00640083Y01082039D01*
X00635005Y01092196D02*
X00632466Y01094735D01*
X00627387D01*
X00624848Y01092196D01*
Y01089657D01*
X00627387Y01087117D01*
X00624848Y01084578D01*
Y01082039D01*
X00627387Y01079500D01*
X00632466D01*
X00635005Y01082039D01*
Y01084578D01*
X00632466Y01087117D01*
X00635005Y01089657D01*
Y01092196D01*
X00632466Y01087117D02*
X00627387D01*
X00899163Y01026156D02*
X00901702Y01028695D01*
X00906781D01*
X00909320Y01026156D01*
Y01015999D01*
X00906781Y01013460D01*
X00901702D01*
X00899163Y01015999D01*
X00894085Y01028695D02*
X00883928D01*
Y01026156D01*
X00894085Y01015999D01*
Y01013460D01*
X00741680Y01216655D02*
Y01203959D01*
X00739141Y01201420D01*
X00734062D01*
X00731523Y01203959D01*
Y01216655D01*
X00718827Y01201420D02*
Y01216655D01*
X00726445Y01209037D01*
X00716288D01*
D58*
X00618770Y01001010D02*
X00619270D01*
X00653270D02*
X00653770D01*
X00618770Y01024510D02*
X00653770D01*
X00618770Y01064010D02*
X00619270D01*
X00653270D02*
X00653770D01*
Y01001010D02*
Y01064010D01*
X00618770Y01001010D02*
Y01064010D01*
X00807970Y01039350D02*
Y01039850D01*
Y01004850D02*
Y01005350D01*
X00831470Y01004850D02*
Y01039850D01*
X00870970Y01039350D02*
Y01039850D01*
Y01004850D02*
Y01005350D01*
X00807970Y01004850D02*
X00870970D01*
X00807970Y01039850D02*
X00870970D01*
M02*
