G04 Layer_Physical_Order=2*
G04 Layer_Color=16711680*
%FSAX44Y44*%
%MOMM*%
G71*
G01*
G75*
%ADD35C,0.6350*%
%ADD37C,1.7780*%
%ADD38C,0.5080*%
%ADD40C,2.0320*%
%ADD41C,1.7780*%
%ADD42C,1.5000*%
%ADD43R,1.5000X1.5000*%
%ADD44C,2.7500*%
%ADD45C,5.5880*%
%ADD46C,2.2000*%
%ADD47R,1.5240X1.5240*%
%ADD48C,1.5240*%
%ADD49R,2.0000X2.0000*%
%ADD50C,2.0000*%
%ADD51C,1.2700*%
%ADD52R,2.2000X2.6000*%
%ADD53R,2.6000X2.2000*%
%ADD54R,12.5000X14.7500*%
%ADD55C,0.4572*%
G36*
X00908209Y01509526D02*
X00927365Y01508018D01*
X00946416Y01505510D01*
X00965310Y01502008D01*
X00983994Y01497523D01*
X01002418Y01492065D01*
X01020531Y01485651D01*
X01038284Y01478297D01*
X01055628Y01470025D01*
X01072514Y01460856D01*
X01088898Y01450816D01*
X01104734Y01439933D01*
X01119979Y01428235D01*
X01134590Y01415755D01*
X01148529Y01402529D01*
X01161756Y01388590D01*
X01174235Y01373979D01*
X01185932Y01358734D01*
X01196816Y01342898D01*
X01206856Y01326514D01*
X01216025Y01309628D01*
X01224297Y01292284D01*
X01231651Y01274531D01*
X01238065Y01256418D01*
X01243523Y01237994D01*
X01248008Y01219310D01*
X01251510Y01200416D01*
X01254018Y01181365D01*
X01255526Y01162209D01*
X01256029Y01143000D01*
X01255526Y01123791D01*
X01254018Y01104635D01*
X01251510Y01085584D01*
X01248008Y01066690D01*
X01243523Y01048006D01*
X01238065Y01029582D01*
X01231651Y01011469D01*
X01224297Y00993716D01*
X01216025Y00976372D01*
X01206856Y00959486D01*
X01196816Y00943102D01*
X01185932Y00927266D01*
X01174235Y00912021D01*
X01161756Y00897410D01*
X01148529Y00883472D01*
X01134590Y00870245D01*
X01119979Y00857765D01*
X01104734Y00846068D01*
X01088898Y00835184D01*
X01088001Y00834634D01*
X01086969Y00835491D01*
X01087662Y00837295D01*
X01087681Y00837478D01*
X01092493Y00842290D01*
X01094325Y00844678D01*
X01095477Y00847458D01*
X01095870Y00850442D01*
Y00868739D01*
X01096343Y00869390D01*
X01097621Y00872719D01*
X01097993Y00876264D01*
X01097436Y00879786D01*
X01095986Y00883043D01*
X01093742Y00885813D01*
X01090858Y00887909D01*
X01087529Y00889186D01*
X01083984Y00889559D01*
X01080462Y00889001D01*
X01077206Y00887551D01*
X01074435Y00885308D01*
X01072339Y00882423D01*
X01071062Y00879095D01*
X01070689Y00875549D01*
X01071247Y00872028D01*
X01072697Y00868771D01*
X01072813Y00868628D01*
Y00855218D01*
X01071299Y00853704D01*
X01070504Y00853578D01*
X01067247Y00852128D01*
X01064476Y00849884D01*
X01062381Y00847000D01*
X01061103Y00843672D01*
X01060730Y00840126D01*
X01061288Y00836605D01*
X01062738Y00833348D01*
X01064982Y00830577D01*
X01067866Y00828482D01*
X01071194Y00827204D01*
X01073116Y00827002D01*
X01073412Y00825694D01*
X01072514Y00825144D01*
X01055628Y00815975D01*
X01038284Y00807702D01*
X01020531Y00800349D01*
X01002418Y00793935D01*
X00983994Y00788477D01*
X00965310Y00783992D01*
X00946416Y00780490D01*
X00927365Y00777982D01*
X00908209Y00776474D01*
X00889000Y00775971D01*
X00869791Y00776474D01*
X00850635Y00777982D01*
X00831584Y00780490D01*
X00812690Y00783992D01*
X00794006Y00788477D01*
X00775582Y00793935D01*
X00757469Y00800349D01*
X00739716Y00807702D01*
X00722372Y00815975D01*
X00705486Y00825144D01*
X00689102Y00835184D01*
X00673266Y00846068D01*
X00658021Y00857765D01*
X00643410Y00870245D01*
X00629472Y00883472D01*
X00616245Y00897410D01*
X00603765Y00912021D01*
X00592067Y00927266D01*
X00581184Y00943102D01*
X00571144Y00959486D01*
X00561975Y00976372D01*
X00553703Y00993716D01*
X00546349Y01011469D01*
X00539935Y01029582D01*
X00534477Y01048006D01*
X00529992Y01066690D01*
X00526490Y01085584D01*
X00523982Y01104635D01*
X00522474Y01123791D01*
X00521971Y01143000D01*
X00522474Y01162209D01*
X00523982Y01181365D01*
X00526490Y01200416D01*
X00529992Y01219310D01*
X00534477Y01237994D01*
X00539935Y01256418D01*
X00546349Y01274531D01*
X00553703Y01292284D01*
X00561975Y01309628D01*
X00571144Y01326514D01*
X00581184Y01342898D01*
X00592067Y01358734D01*
X00603765Y01373979D01*
X00616245Y01388590D01*
X00629472Y01402529D01*
X00643410Y01415755D01*
X00658021Y01428235D01*
X00673266Y01439933D01*
X00689102Y01450816D01*
X00705486Y01460856D01*
X00722372Y01470025D01*
X00739716Y01478297D01*
X00757469Y01485651D01*
X00775582Y01492065D01*
X00794006Y01497523D01*
X00812690Y01502008D01*
X00831584Y01505510D01*
X00850635Y01508018D01*
X00869791Y01509526D01*
X00889000Y01510029D01*
X00908209Y01509526D01*
D02*
G37*
%LPC*%
G36*
X00566420Y01205329D02*
X00563436Y01204936D01*
X00560656Y01203784D01*
X00558268Y01201952D01*
X00556436Y01199564D01*
X00555284Y01196784D01*
X00554891Y01193800D01*
X00555284Y01190816D01*
X00556436Y01188036D01*
X00558268Y01185648D01*
X00576048Y01167868D01*
X00576048Y01167868D01*
X00578436Y01166036D01*
X00581216Y01164884D01*
X00584200Y01164491D01*
X00635000D01*
X00637984Y01164884D01*
X00640764Y01166036D01*
X00643152Y01167868D01*
X00644984Y01170256D01*
X00646136Y01173036D01*
X00646529Y01176020D01*
X00646136Y01179004D01*
X00644984Y01181784D01*
X00643152Y01184172D01*
X00640764Y01186004D01*
X00637984Y01187156D01*
X00635000Y01187549D01*
X00588975D01*
X00574572Y01201952D01*
X00572184Y01203784D01*
X00569404Y01204936D01*
X00566420Y01205329D01*
D02*
G37*
G36*
X00949960Y01192607D02*
X00947639Y01192301D01*
X00945477Y01191405D01*
X00943620Y01189980D01*
X00942195Y01188123D01*
X00941299Y01185961D01*
X00940993Y01183640D01*
X00941299Y01181319D01*
X00942195Y01179157D01*
X00943620Y01177300D01*
X00945477Y01175875D01*
X00947639Y01174979D01*
X00949960Y01174673D01*
X00952281Y01174979D01*
X00954443Y01175875D01*
X00956300Y01177300D01*
X00957725Y01179157D01*
X00958621Y01181319D01*
X00958927Y01183640D01*
X00958621Y01185961D01*
X00957725Y01188123D01*
X00956300Y01189980D01*
X00954443Y01191405D01*
X00952281Y01192301D01*
X00949960Y01192607D01*
D02*
G37*
G36*
X00833000Y01159369D02*
X00829807Y01159054D01*
X00826736Y01158123D01*
X00823906Y01156610D01*
X00821426Y01154575D01*
X00819390Y01152094D01*
X00817877Y01149264D01*
X00816946Y01146193D01*
X00816631Y01143000D01*
X00816946Y01139807D01*
X00817877Y01136736D01*
X00819390Y01133906D01*
X00821426Y01131425D01*
X00823906Y01129390D01*
X00826736Y01127877D01*
X00829807Y01126946D01*
X00833000Y01126631D01*
X00836193Y01126946D01*
X00839264Y01127877D01*
X00842094Y01129390D01*
X00844575Y01131425D01*
X00846610Y01133906D01*
X00848123Y01136736D01*
X00849054Y01139807D01*
X00849369Y01143000D01*
X00849054Y01146193D01*
X00848123Y01149264D01*
X00846610Y01152094D01*
X00844575Y01154575D01*
X00842094Y01156610D01*
X00839264Y01158123D01*
X00836193Y01159054D01*
X00833000Y01159369D01*
D02*
G37*
G36*
X00945000D02*
X00941806Y01159054D01*
X00938736Y01158123D01*
X00935906Y01156610D01*
X00933425Y01154575D01*
X00931390Y01152094D01*
X00929877Y01149264D01*
X00928946Y01146193D01*
X00928631Y01143000D01*
X00928946Y01139807D01*
X00929877Y01136736D01*
X00931390Y01133906D01*
X00933425Y01131425D01*
X00935906Y01129390D01*
X00938736Y01127877D01*
X00941806Y01126946D01*
X00945000Y01126631D01*
X00948193Y01126946D01*
X00951264Y01127877D01*
X00954094Y01129390D01*
X00956574Y01131425D01*
X00958610Y01133906D01*
X00960123Y01136736D01*
X00961054Y01139807D01*
X00961369Y01143000D01*
X00961054Y01146193D01*
X00960123Y01149264D01*
X00958610Y01152094D01*
X00956574Y01154575D01*
X00954094Y01156610D01*
X00951264Y01158123D01*
X00948193Y01159054D01*
X00945000Y01159369D01*
D02*
G37*
G36*
X00749300Y01248498D02*
X00746648Y01248148D01*
X00744176Y01247125D01*
X00742054Y01245496D01*
X00740425Y01243374D01*
X00739401Y01240902D01*
X00739052Y01238250D01*
X00739401Y01235598D01*
X00740425Y01233126D01*
X00742054Y01231004D01*
X00744176Y01229375D01*
X00746648Y01228352D01*
X00749300Y01228002D01*
X00751952Y01228352D01*
X00754424Y01229375D01*
X00756546Y01231004D01*
X00758175Y01233126D01*
X00759199Y01235598D01*
X00759548Y01238250D01*
X00759199Y01240902D01*
X00758175Y01243374D01*
X00756546Y01245496D01*
X00754424Y01247125D01*
X00751952Y01248148D01*
X00749300Y01248498D01*
D02*
G37*
G36*
X00774700D02*
X00772048Y01248148D01*
X00769576Y01247125D01*
X00767454Y01245496D01*
X00765825Y01243374D01*
X00764801Y01240902D01*
X00764452Y01238250D01*
X00764801Y01235598D01*
X00765825Y01233126D01*
X00767454Y01231004D01*
X00769576Y01229375D01*
X00772048Y01228352D01*
X00774700Y01228002D01*
X00777352Y01228352D01*
X00779824Y01229375D01*
X00781946Y01231004D01*
X00783575Y01233126D01*
X00784598Y01235598D01*
X00784948Y01238250D01*
X00784598Y01240902D01*
X00783575Y01243374D01*
X00781946Y01245496D01*
X00779824Y01247125D01*
X00777352Y01248148D01*
X00774700Y01248498D01*
D02*
G37*
G36*
X01130300Y01237074D02*
X01125517Y01236698D01*
X01120852Y01235578D01*
X01116420Y01233742D01*
X01112329Y01231235D01*
X01108681Y01228119D01*
X01105565Y01224471D01*
X01103058Y01220380D01*
X01101222Y01215948D01*
X01100102Y01211283D01*
X01099726Y01206500D01*
X01100102Y01201717D01*
X01101222Y01197052D01*
X01103058Y01192620D01*
X01105565Y01188529D01*
X01108681Y01184881D01*
X01112329Y01181765D01*
X01116420Y01179258D01*
X01120852Y01177422D01*
X01125517Y01176302D01*
X01130300Y01175926D01*
X01135083Y01176302D01*
X01139748Y01177422D01*
X01144180Y01179258D01*
X01148271Y01181765D01*
X01151919Y01184881D01*
X01155035Y01188529D01*
X01157542Y01192620D01*
X01159378Y01197052D01*
X01160498Y01201717D01*
X01160874Y01206500D01*
X01160498Y01211283D01*
X01159378Y01215948D01*
X01157542Y01220380D01*
X01155035Y01224471D01*
X01151919Y01228119D01*
X01148271Y01231235D01*
X01144180Y01233742D01*
X01139748Y01235578D01*
X01135083Y01236698D01*
X01130300Y01237074D01*
D02*
G37*
G36*
X00723900Y01248498D02*
X00721248Y01248148D01*
X00718776Y01247125D01*
X00716654Y01245496D01*
X00715025Y01243374D01*
X00714001Y01240902D01*
X00713652Y01238250D01*
X00714001Y01235598D01*
X00715025Y01233126D01*
X00716654Y01231004D01*
X00718776Y01229375D01*
X00721248Y01228352D01*
X00723900Y01228002D01*
X00726552Y01228352D01*
X00729024Y01229375D01*
X00731146Y01231004D01*
X00732775Y01233126D01*
X00733799Y01235598D01*
X00734148Y01238250D01*
X00733799Y01240902D01*
X00732775Y01243374D01*
X00731146Y01245496D01*
X00729024Y01247125D01*
X00726552Y01248148D01*
X00723900Y01248498D01*
D02*
G37*
G36*
X00830010Y01035890D02*
X00798930D01*
Y01024926D01*
X00768524Y00994520D01*
X00755650D01*
X00753602Y00994250D01*
X00743110D01*
Y00983758D01*
X00742840Y00981710D01*
X00743110Y00979662D01*
Y00969170D01*
X00753602D01*
X00755650Y00968900D01*
X00773830D01*
X00777145Y00969337D01*
X00780235Y00970617D01*
X00782887Y00972652D01*
X00819045Y01008810D01*
X00830010D01*
Y01035890D01*
D02*
G37*
G36*
X00649810Y01023050D02*
X00622730D01*
Y00991970D01*
X00649810D01*
Y00995981D01*
X00674275D01*
X00693208Y00977048D01*
X00693896Y00975386D01*
X00695906Y00972766D01*
X00698526Y00970756D01*
X00701576Y00969493D01*
X00704850Y00969062D01*
X00708124Y00969493D01*
X00711174Y00970756D01*
X00713794Y00972766D01*
X00715804Y00975386D01*
X00717067Y00978436D01*
X00717498Y00981710D01*
X00717067Y00984984D01*
X00715804Y00988034D01*
X00713794Y00990654D01*
X00711174Y00992664D01*
X00709512Y00993352D01*
X00687202Y01015662D01*
X00684815Y01017494D01*
X00682034Y01018646D01*
X00679050Y01019038D01*
X00649810D01*
Y01023050D01*
D02*
G37*
G36*
X00984250Y00998319D02*
X00981266Y00997926D01*
X00978486Y00996774D01*
X00976098Y00994942D01*
X00906248Y00925092D01*
X00904416Y00922704D01*
X00903264Y00919924D01*
X00902871Y00916940D01*
Y00906780D01*
X00903264Y00903796D01*
X00904416Y00901016D01*
X00906248Y00898628D01*
X00907006Y00898046D01*
X00906575Y00896776D01*
X00761405D01*
X00759855Y00897325D01*
X00756301Y00897605D01*
X00752796Y00896955D01*
X00749578Y00895420D01*
X00746867Y00893105D01*
X00744848Y00890167D01*
X00743658Y00886806D01*
X00743378Y00883252D01*
X00744028Y00879747D01*
X00745562Y00876529D01*
X00747878Y00873818D01*
X00750816Y00871798D01*
X00754177Y00870608D01*
X00757731Y00870329D01*
X00761236Y00870978D01*
X00761611Y00871157D01*
X01041681D01*
X01041741Y00871113D01*
X01045069Y00869836D01*
X01048615Y00869463D01*
X01052136Y00870021D01*
X01055393Y00871471D01*
X01058164Y00873715D01*
X01060259Y00876599D01*
X01061537Y00879927D01*
X01061910Y00883473D01*
X01061352Y00886994D01*
X01059902Y00890251D01*
X01057658Y00893022D01*
X01054774Y00895117D01*
X01051446Y00896395D01*
X01047900Y00896768D01*
X01047706Y00896737D01*
X01047406Y00896776D01*
X00987181D01*
X00986893Y00898046D01*
X00988205Y00899757D01*
X00989101Y00901919D01*
X00989407Y00904240D01*
X00989101Y00906561D01*
X00988205Y00908723D01*
X00986780Y00910580D01*
X00984923Y00912005D01*
X00982761Y00912901D01*
X00980440Y00913207D01*
X00979798Y00913122D01*
X00979480Y00913440D01*
X00977590Y00914703D01*
X00975360Y00915147D01*
X00946534D01*
X00946140Y00915660D01*
X00944283Y00917085D01*
X00942121Y00917981D01*
X00939800Y00918287D01*
X00937479Y00917981D01*
X00935317Y00917085D01*
X00933460Y00915660D01*
X00932035Y00913803D01*
X00931139Y00911641D01*
X00930833Y00909320D01*
X00931139Y00906999D01*
X00932035Y00904837D01*
X00933460Y00902980D01*
X00935317Y00901555D01*
X00937479Y00900659D01*
X00939800Y00900353D01*
X00942121Y00900659D01*
X00944283Y00901555D01*
X00946140Y00902980D01*
X00946534Y00903493D01*
X00971572D01*
X00971779Y00901919D01*
X00972675Y00899757D01*
X00973987Y00898046D01*
X00973699Y00896776D01*
X00922225D01*
X00921794Y00898046D01*
X00922552Y00898628D01*
X00924384Y00901016D01*
X00925536Y00903796D01*
X00925929Y00906780D01*
Y00912165D01*
X00992402Y00978638D01*
X00994234Y00981026D01*
X00995386Y00983806D01*
X00995779Y00986790D01*
X00995386Y00989774D01*
X00994234Y00992554D01*
X00992402Y00994942D01*
X00990014Y00996774D01*
X00987234Y00997926D01*
X00984250Y00998319D01*
D02*
G37*
G36*
X00834390Y00985614D02*
X00829607Y00985238D01*
X00824942Y00984118D01*
X00820510Y00982282D01*
X00816419Y00979775D01*
X00812771Y00976659D01*
X00809655Y00973011D01*
X00807148Y00968920D01*
X00805312Y00964488D01*
X00804192Y00959823D01*
X00803816Y00955040D01*
X00804192Y00950257D01*
X00805312Y00945592D01*
X00807148Y00941160D01*
X00809655Y00937069D01*
X00812771Y00933421D01*
X00816419Y00930305D01*
X00820510Y00927798D01*
X00824942Y00925962D01*
X00829607Y00924842D01*
X00834390Y00924466D01*
X00839173Y00924842D01*
X00843838Y00925962D01*
X00848270Y00927798D01*
X00852361Y00930305D01*
X00856009Y00933421D01*
X00859125Y00937069D01*
X00861632Y00941160D01*
X00863468Y00945592D01*
X00864588Y00950257D01*
X00864964Y00955040D01*
X00864588Y00959823D01*
X00863468Y00964488D01*
X00861632Y00968920D01*
X00859125Y00973011D01*
X00856009Y00976659D01*
X00852361Y00979775D01*
X00848270Y00982282D01*
X00843838Y00984118D01*
X00839173Y00985238D01*
X00834390Y00985614D01*
D02*
G37*
G36*
X01130300Y01124027D02*
X01127979Y01123721D01*
X01125817Y01122825D01*
X01123960Y01121400D01*
X01122535Y01119543D01*
X01121639Y01117381D01*
X01121333Y01115060D01*
X01121639Y01112739D01*
X01122535Y01110577D01*
X01123960Y01108720D01*
X01125817Y01107295D01*
X01127979Y01106399D01*
X01130300Y01106093D01*
X01132621Y01106399D01*
X01134783Y01107295D01*
X01136640Y01108720D01*
X01138065Y01110577D01*
X01138961Y01112739D01*
X01139267Y01115060D01*
X01138961Y01117381D01*
X01138065Y01119543D01*
X01136640Y01121400D01*
X01134783Y01122825D01*
X01132621Y01123721D01*
X01130300Y01124027D01*
D02*
G37*
G36*
X00858520Y01190067D02*
X00856199Y01189761D01*
X00854037Y01188865D01*
X00852180Y01187440D01*
X00850755Y01185583D01*
X00849859Y01183421D01*
X00849553Y01181100D01*
X00849859Y01178779D01*
X00850755Y01176617D01*
X00852180Y01174760D01*
X00854037Y01173335D01*
X00856199Y01172439D01*
X00858520Y01172133D01*
X00859162Y01172218D01*
X00862853Y01168526D01*
Y01134494D01*
X00862340Y01134100D01*
X00860915Y01132243D01*
X00860019Y01130081D01*
X00859713Y01127760D01*
X00860019Y01125439D01*
X00860915Y01123277D01*
X00862340Y01121420D01*
X00864197Y01119995D01*
X00866359Y01119099D01*
X00868680Y01118793D01*
X00871001Y01119099D01*
X00873163Y01119995D01*
X00875020Y01121420D01*
X00876445Y01123277D01*
X00877341Y01125439D01*
X00877647Y01127760D01*
X00877341Y01130081D01*
X00876445Y01132243D01*
X00875020Y01134100D01*
X00874507Y01134494D01*
Y01170940D01*
X00874063Y01173170D01*
X00872800Y01175060D01*
X00867402Y01180458D01*
X00867487Y01181100D01*
X00867181Y01183421D01*
X00866285Y01185583D01*
X00864860Y01187440D01*
X00863003Y01188865D01*
X00860841Y01189761D01*
X00858520Y01190067D01*
D02*
G37*
G36*
X00914000Y01079529D02*
X00911016Y01079136D01*
X00908236Y01077984D01*
X00905848Y01076152D01*
X00904016Y01073764D01*
X00902864Y01070984D01*
X00902472Y01068000D01*
X00902864Y01065016D01*
X00904016Y01062236D01*
X00905848Y01059848D01*
X00908236Y01058016D01*
X00911016Y01056864D01*
X00914000Y01056471D01*
X00916984Y01056864D01*
X00919764Y01058016D01*
X00922152Y01059848D01*
X00923984Y01062236D01*
X00925136Y01065016D01*
X00925529Y01068000D01*
X00925136Y01070984D01*
X00923984Y01073764D01*
X00922152Y01076152D01*
X00919764Y01077984D01*
X00916984Y01079136D01*
X00914000Y01079529D01*
D02*
G37*
G36*
X00864000D02*
X00861016Y01079136D01*
X00858235Y01077984D01*
X00855848Y01076152D01*
X00854016Y01073764D01*
X00852864Y01070984D01*
X00852471Y01068000D01*
X00852864Y01065016D01*
X00854016Y01062236D01*
X00855787Y01059927D01*
X00855693Y01059392D01*
X00855443Y01058657D01*
X00833504D01*
X00833110Y01059170D01*
X00831253Y01060595D01*
X00829091Y01061491D01*
X00826770Y01061797D01*
X00824449Y01061491D01*
X00822287Y01060595D01*
X00820430Y01059170D01*
X00819005Y01057313D01*
X00818109Y01055151D01*
X00817803Y01052830D01*
X00818109Y01050509D01*
X00819005Y01048347D01*
X00820430Y01046490D01*
X00822287Y01045065D01*
X00824449Y01044169D01*
X00826770Y01043863D01*
X00829091Y01044169D01*
X00831253Y01045065D01*
X00833110Y01046490D01*
X00833504Y01047003D01*
X00880236D01*
X00918218Y01009022D01*
X00918133Y01008380D01*
X00918439Y01006059D01*
X00919335Y01003897D01*
X00920760Y01002040D01*
X00922617Y01000615D01*
X00924779Y00999719D01*
X00927100Y00999413D01*
X00929421Y00999719D01*
X00931583Y01000615D01*
X00933440Y01002040D01*
X00934865Y01003897D01*
X00935761Y01006059D01*
X00936067Y01008380D01*
X00935761Y01010701D01*
X00934865Y01012863D01*
X00933440Y01014720D01*
X00931583Y01016145D01*
X00929421Y01017041D01*
X00927100Y01017347D01*
X00926458Y01017262D01*
X00886770Y01056950D01*
X00884880Y01058213D01*
X00882650Y01058657D01*
X00872556D01*
X00872306Y01059392D01*
X00872212Y01059927D01*
X00873984Y01062236D01*
X00875136Y01065016D01*
X00875528Y01068000D01*
X00875136Y01070984D01*
X00873984Y01073764D01*
X00872152Y01076152D01*
X00869764Y01077984D01*
X00866984Y01079136D01*
X00864000Y01079529D01*
D02*
G37*
G36*
X00850900Y01248498D02*
X00848248Y01248148D01*
X00845776Y01247125D01*
X00843654Y01245496D01*
X00842025Y01243374D01*
X00841002Y01240902D01*
X00840652Y01238250D01*
X00841002Y01235598D01*
X00842025Y01233126D01*
X00843654Y01231004D01*
X00845776Y01229375D01*
X00848248Y01228352D01*
X00850900Y01228002D01*
X00853552Y01228352D01*
X00856024Y01229375D01*
X00858146Y01231004D01*
X00859775Y01233126D01*
X00860798Y01235598D01*
X00861148Y01238250D01*
X00860798Y01240902D01*
X00859775Y01243374D01*
X00858146Y01245496D01*
X00856024Y01247125D01*
X00853552Y01248148D01*
X00850900Y01248498D01*
D02*
G37*
G36*
X00952500Y01400898D02*
X00949848Y01400549D01*
X00947376Y01399525D01*
X00945254Y01397896D01*
X00943625Y01395774D01*
X00942601Y01393302D01*
X00942252Y01390650D01*
X00942601Y01387998D01*
X00943625Y01385526D01*
X00945254Y01383404D01*
X00947376Y01381775D01*
X00949848Y01380751D01*
X00952500Y01380402D01*
X00955152Y01380751D01*
X00957624Y01381775D01*
X00959746Y01383404D01*
X00961375Y01385526D01*
X00962399Y01387998D01*
X00962748Y01390650D01*
X00962399Y01393302D01*
X00961375Y01395774D01*
X00959746Y01397896D01*
X00957624Y01399525D01*
X00955152Y01400549D01*
X00952500Y01400898D01*
D02*
G37*
G36*
X00977900D02*
X00975248Y01400549D01*
X00972776Y01399525D01*
X00970654Y01397896D01*
X00969025Y01395774D01*
X00968001Y01393302D01*
X00967652Y01390650D01*
X00968001Y01387998D01*
X00969025Y01385526D01*
X00970654Y01383404D01*
X00972776Y01381775D01*
X00975248Y01380751D01*
X00977900Y01380402D01*
X00980552Y01380751D01*
X00983024Y01381775D01*
X00985146Y01383404D01*
X00986775Y01385526D01*
X00987798Y01387998D01*
X00988148Y01390650D01*
X00987798Y01393302D01*
X00986775Y01395774D01*
X00985146Y01397896D01*
X00983024Y01399525D01*
X00980552Y01400549D01*
X00977900Y01400898D01*
D02*
G37*
G36*
X00901700D02*
X00899048Y01400549D01*
X00896576Y01399525D01*
X00894454Y01397896D01*
X00892825Y01395774D01*
X00891802Y01393302D01*
X00891452Y01390650D01*
X00891802Y01387998D01*
X00892825Y01385526D01*
X00894454Y01383404D01*
X00896576Y01381775D01*
X00899048Y01380751D01*
X00901700Y01380402D01*
X00904352Y01380751D01*
X00906824Y01381775D01*
X00908946Y01383404D01*
X00910575Y01385526D01*
X00911599Y01387998D01*
X00911948Y01390650D01*
X00911599Y01393302D01*
X00910575Y01395774D01*
X00908946Y01397896D01*
X00906824Y01399525D01*
X00904352Y01400549D01*
X00901700Y01400898D01*
D02*
G37*
G36*
X00927100D02*
X00924448Y01400549D01*
X00921976Y01399525D01*
X00919854Y01397896D01*
X00918225Y01395774D01*
X00917202Y01393302D01*
X00916852Y01390650D01*
X00917202Y01387998D01*
X00918225Y01385526D01*
X00919854Y01383404D01*
X00921976Y01381775D01*
X00924448Y01380751D01*
X00927100Y01380402D01*
X00929752Y01380751D01*
X00932224Y01381775D01*
X00934346Y01383404D01*
X00935975Y01385526D01*
X00936999Y01387998D01*
X00937348Y01390650D01*
X00936999Y01393302D01*
X00935975Y01395774D01*
X00934346Y01397896D01*
X00932224Y01399525D01*
X00929752Y01400549D01*
X00927100Y01400898D01*
D02*
G37*
G36*
X01054100D02*
X01051448Y01400549D01*
X01048976Y01399525D01*
X01046854Y01397896D01*
X01045225Y01395774D01*
X01044202Y01393302D01*
X01043852Y01390650D01*
X01044202Y01387998D01*
X01045225Y01385526D01*
X01046854Y01383404D01*
X01048976Y01381775D01*
X01051448Y01380751D01*
X01054100Y01380402D01*
X01056752Y01380751D01*
X01059224Y01381775D01*
X01061346Y01383404D01*
X01062975Y01385526D01*
X01063998Y01387998D01*
X01064348Y01390650D01*
X01063998Y01393302D01*
X01062975Y01395774D01*
X01061346Y01397896D01*
X01059224Y01399525D01*
X01056752Y01400549D01*
X01054100Y01400898D01*
D02*
G37*
G36*
X00830760Y01408530D02*
X00787400D01*
X00785418Y01408135D01*
X00783737Y01407012D01*
X00777283Y01400558D01*
X00774700Y01400898D01*
X00772048Y01400549D01*
X00769576Y01399525D01*
X00767454Y01397896D01*
X00765825Y01395774D01*
X00764801Y01393302D01*
X00764452Y01390650D01*
X00764801Y01387998D01*
X00765825Y01385526D01*
X00767454Y01383404D01*
X00769576Y01381775D01*
X00772048Y01380751D01*
X00774700Y01380402D01*
X00777352Y01380751D01*
X00779824Y01381775D01*
X00781946Y01383404D01*
X00783575Y01385526D01*
X00784598Y01387998D01*
X00784948Y01390650D01*
X00784608Y01393233D01*
X00789545Y01398170D01*
X00791463D01*
X00792090Y01396900D01*
X00791225Y01395774D01*
X00790201Y01393302D01*
X00789852Y01390650D01*
X00790201Y01387998D01*
X00791225Y01385526D01*
X00792854Y01383404D01*
X00794976Y01381775D01*
X00797448Y01380751D01*
X00800100Y01380402D01*
X00802752Y01380751D01*
X00805224Y01381775D01*
X00807346Y01383404D01*
X00808975Y01385526D01*
X00809998Y01387998D01*
X00810348Y01390650D01*
X00809998Y01393302D01*
X00808975Y01395774D01*
X00808110Y01396900D01*
X00808737Y01398170D01*
X00816863D01*
X00817490Y01396900D01*
X00816625Y01395774D01*
X00815602Y01393302D01*
X00815252Y01390650D01*
X00815486Y01388876D01*
X00664071Y01237462D01*
X00662721Y01238021D01*
X00660400Y01238327D01*
X00658079Y01238021D01*
X00655917Y01237125D01*
X00654060Y01235700D01*
X00652635Y01233843D01*
X00651739Y01231681D01*
X00651433Y01229360D01*
X00651739Y01227039D01*
X00652635Y01224877D01*
X00654060Y01223020D01*
X00655917Y01221595D01*
X00658079Y01220699D01*
X00660400Y01220393D01*
X00662721Y01220699D01*
X00664883Y01221595D01*
X00666740Y01223020D01*
X00668165Y01224877D01*
X00668310Y01225226D01*
X00668330Y01225240D01*
X00823102Y01380012D01*
X00823588Y01379899D01*
X00823987Y01378502D01*
X00809137Y01363652D01*
X00808015Y01361972D01*
X00807620Y01359989D01*
Y01246887D01*
X00806350Y01246260D01*
X00805224Y01247125D01*
X00802752Y01248148D01*
X00800100Y01248498D01*
X00797448Y01248148D01*
X00794976Y01247125D01*
X00792854Y01245496D01*
X00791225Y01243374D01*
X00790201Y01240902D01*
X00789852Y01238250D01*
X00790201Y01235598D01*
X00791225Y01233126D01*
X00792854Y01231004D01*
X00794976Y01229375D01*
X00797448Y01228352D01*
X00800100Y01228002D01*
X00802541Y01228324D01*
X00803287Y01227997D01*
X00803811Y01227647D01*
Y01190871D01*
X00802650Y01189980D01*
X00801225Y01188123D01*
X00800329Y01185961D01*
X00800023Y01183640D01*
X00800329Y01181319D01*
X00801225Y01179157D01*
X00802650Y01177300D01*
X00804507Y01175875D01*
X00806669Y01174979D01*
X00808990Y01174673D01*
X00811311Y01174979D01*
X00813473Y01175875D01*
X00815330Y01177300D01*
X00816755Y01179157D01*
X00817651Y01181319D01*
X00817957Y01183640D01*
X00817651Y01185961D01*
X00816755Y01188123D01*
X00815330Y01189980D01*
X00814169Y01190871D01*
Y01227034D01*
X00816462Y01229327D01*
X00817150Y01230356D01*
X00817348Y01230472D01*
X00818680Y01230649D01*
X00818743Y01230628D01*
X00820376Y01229375D01*
X00822848Y01228352D01*
X00825500Y01228002D01*
X00828152Y01228352D01*
X00830624Y01229375D01*
X00832746Y01231004D01*
X00834375Y01233126D01*
X00835398Y01235598D01*
X00835748Y01238250D01*
X00835398Y01240902D01*
X00834375Y01243374D01*
X00832746Y01245496D01*
X00830624Y01247125D01*
X00828152Y01248148D01*
X00825500Y01248498D01*
X00822848Y01248148D01*
X00820376Y01247125D01*
X00819249Y01246260D01*
X00817980Y01246887D01*
Y01357844D01*
X00841862Y01381727D01*
X00841862Y01381727D01*
X00842550Y01382756D01*
X00842748Y01382872D01*
X00844080Y01383049D01*
X00844143Y01383028D01*
X00845776Y01381775D01*
X00848248Y01380751D01*
X00850900Y01380402D01*
X00853552Y01380751D01*
X00856024Y01381775D01*
X00858146Y01383404D01*
X00859775Y01385526D01*
X00860798Y01387998D01*
X00861148Y01390650D01*
X00860798Y01393302D01*
X00859775Y01395774D01*
X00858146Y01397896D01*
X00856024Y01399525D01*
X00853552Y01400549D01*
X00850900Y01400898D01*
X00848248Y01400549D01*
X00845776Y01399525D01*
X00844143Y01398272D01*
X00844080Y01398251D01*
X00842748Y01398428D01*
X00842550Y01398544D01*
X00841862Y01399573D01*
X00834423Y01407012D01*
X00832743Y01408135D01*
X00830760Y01408530D01*
D02*
G37*
G36*
X01003300Y01400898D02*
X01000648Y01400549D01*
X00998176Y01399525D01*
X00996054Y01397896D01*
X00994425Y01395774D01*
X00993401Y01393302D01*
X00993052Y01390650D01*
X00993401Y01387998D01*
X00994425Y01385526D01*
X00996054Y01383404D01*
X00998176Y01381775D01*
X01000648Y01380751D01*
X01003300Y01380402D01*
X01005952Y01380751D01*
X01008424Y01381775D01*
X01010546Y01383404D01*
X01012175Y01385526D01*
X01013198Y01387998D01*
X01013548Y01390650D01*
X01013198Y01393302D01*
X01012175Y01395774D01*
X01010546Y01397896D01*
X01008424Y01399525D01*
X01005952Y01400549D01*
X01003300Y01400898D01*
D02*
G37*
G36*
X01028700D02*
X01026048Y01400549D01*
X01023576Y01399525D01*
X01021454Y01397896D01*
X01019825Y01395774D01*
X01018801Y01393302D01*
X01018452Y01390650D01*
X01018801Y01387998D01*
X01019825Y01385526D01*
X01021454Y01383404D01*
X01023576Y01381775D01*
X01026048Y01380751D01*
X01028700Y01380402D01*
X01031352Y01380751D01*
X01033824Y01381775D01*
X01035946Y01383404D01*
X01037575Y01385526D01*
X01038598Y01387998D01*
X01038948Y01390650D01*
X01038598Y01393302D01*
X01037575Y01395774D01*
X01035946Y01397896D01*
X01033824Y01399525D01*
X01031352Y01400549D01*
X01028700Y01400898D01*
D02*
G37*
G36*
X00876300D02*
X00873648Y01400549D01*
X00871176Y01399525D01*
X00869054Y01397896D01*
X00867425Y01395774D01*
X00866402Y01393302D01*
X00866052Y01390650D01*
X00866402Y01387998D01*
X00867425Y01385526D01*
X00869054Y01383404D01*
X00871176Y01381775D01*
X00873648Y01380751D01*
X00876300Y01380402D01*
X00878952Y01380751D01*
X00881424Y01381775D01*
X00883546Y01383404D01*
X00885175Y01385526D01*
X00886199Y01387998D01*
X00886548Y01390650D01*
X00886199Y01393302D01*
X00885175Y01395774D01*
X00883546Y01397896D01*
X00881424Y01399525D01*
X00878952Y01400549D01*
X00876300Y01400898D01*
D02*
G37*
G36*
X01003300Y01248498D02*
X01000648Y01248148D01*
X00998176Y01247125D01*
X00996054Y01245496D01*
X00994425Y01243374D01*
X00993401Y01240902D01*
X00993052Y01238250D01*
X00993401Y01235598D01*
X00994425Y01233126D01*
X00996054Y01231004D01*
X00998176Y01229375D01*
X01000648Y01228352D01*
X01003300Y01228002D01*
X01005952Y01228352D01*
X01008424Y01229375D01*
X01010546Y01231004D01*
X01012175Y01233126D01*
X01013198Y01235598D01*
X01013548Y01238250D01*
X01013198Y01240902D01*
X01012175Y01243374D01*
X01010546Y01245496D01*
X01008424Y01247125D01*
X01005952Y01248148D01*
X01003300Y01248498D01*
D02*
G37*
G36*
X01028700D02*
X01026048Y01248148D01*
X01023576Y01247125D01*
X01021454Y01245496D01*
X01019825Y01243374D01*
X01018801Y01240902D01*
X01018452Y01238250D01*
X01018801Y01235598D01*
X01019825Y01233126D01*
X01021454Y01231004D01*
X01023576Y01229375D01*
X01026048Y01228352D01*
X01028700Y01228002D01*
X01031352Y01228352D01*
X01033824Y01229375D01*
X01035946Y01231004D01*
X01037575Y01233126D01*
X01038598Y01235598D01*
X01038948Y01238250D01*
X01038598Y01240902D01*
X01037575Y01243374D01*
X01035946Y01245496D01*
X01033824Y01247125D01*
X01031352Y01248148D01*
X01028700Y01248498D01*
D02*
G37*
G36*
X00952500D02*
X00949848Y01248148D01*
X00947376Y01247125D01*
X00945254Y01245496D01*
X00943625Y01243374D01*
X00942601Y01240902D01*
X00942252Y01238250D01*
X00942601Y01235598D01*
X00943625Y01233126D01*
X00945254Y01231004D01*
X00947376Y01229375D01*
X00949848Y01228352D01*
X00952500Y01228002D01*
X00955152Y01228352D01*
X00957624Y01229375D01*
X00959746Y01231004D01*
X00961375Y01233126D01*
X00962399Y01235598D01*
X00962748Y01238250D01*
X00962399Y01240902D01*
X00961375Y01243374D01*
X00959746Y01245496D01*
X00957624Y01247125D01*
X00955152Y01248148D01*
X00952500Y01248498D01*
D02*
G37*
G36*
X00977900D02*
X00975248Y01248148D01*
X00972776Y01247125D01*
X00970654Y01245496D01*
X00969025Y01243374D01*
X00968001Y01240902D01*
X00967652Y01238250D01*
X00968001Y01235598D01*
X00969025Y01233126D01*
X00970654Y01231004D01*
X00972776Y01229375D01*
X00975248Y01228352D01*
X00977900Y01228002D01*
X00980552Y01228352D01*
X00983024Y01229375D01*
X00985146Y01231004D01*
X00986775Y01233126D01*
X00987798Y01235598D01*
X00988148Y01238250D01*
X00987798Y01240902D01*
X00986775Y01243374D01*
X00985146Y01245496D01*
X00983024Y01247125D01*
X00980552Y01248148D01*
X00977900Y01248498D01*
D02*
G37*
G36*
X00723900Y01400898D02*
X00721248Y01400549D01*
X00718776Y01399525D01*
X00716654Y01397896D01*
X00715025Y01395774D01*
X00714001Y01393302D01*
X00713652Y01390650D01*
X00714001Y01387998D01*
X00715025Y01385526D01*
X00716654Y01383404D01*
X00718776Y01381775D01*
X00721248Y01380751D01*
X00723900Y01380402D01*
X00726552Y01380751D01*
X00729024Y01381775D01*
X00731146Y01383404D01*
X00732775Y01385526D01*
X00733799Y01387998D01*
X00734148Y01390650D01*
X00733799Y01393302D01*
X00732775Y01395774D01*
X00731146Y01397896D01*
X00729024Y01399525D01*
X00726552Y01400549D01*
X00723900Y01400898D01*
D02*
G37*
G36*
X00749300D02*
X00746648Y01400549D01*
X00744176Y01399525D01*
X00742054Y01397896D01*
X00740425Y01395774D01*
X00739401Y01393302D01*
X00739052Y01390650D01*
X00739401Y01387998D01*
X00740425Y01385526D01*
X00742054Y01383404D01*
X00744176Y01381775D01*
X00746648Y01380751D01*
X00749300Y01380402D01*
X00751952Y01380751D01*
X00754424Y01381775D01*
X00756546Y01383404D01*
X00758175Y01385526D01*
X00759199Y01387998D01*
X00759548Y01390650D01*
X00759199Y01393302D01*
X00758175Y01395774D01*
X00756546Y01397896D01*
X00754424Y01399525D01*
X00751952Y01400549D01*
X00749300Y01400898D01*
D02*
G37*
G36*
X00951230Y01294207D02*
X00948909Y01293901D01*
X00946747Y01293005D01*
X00944890Y01291580D01*
X00943465Y01289723D01*
X00942569Y01287561D01*
X00942263Y01285240D01*
X00942569Y01282919D01*
X00943465Y01280757D01*
X00944890Y01278900D01*
X00946050Y01278009D01*
Y01264525D01*
X00929683Y01248158D01*
X00927100Y01248498D01*
X00924448Y01248148D01*
X00921976Y01247125D01*
X00919854Y01245496D01*
X00918225Y01243374D01*
X00917202Y01240902D01*
X00916852Y01238250D01*
X00917202Y01235598D01*
X00918225Y01233126D01*
X00919288Y01231740D01*
X00918662Y01230471D01*
X00910138D01*
X00909511Y01231740D01*
X00910575Y01233126D01*
X00911599Y01235598D01*
X00911948Y01238250D01*
X00911599Y01240902D01*
X00910575Y01243374D01*
X00908946Y01245496D01*
X00906880Y01247082D01*
Y01270000D01*
X00906485Y01271982D01*
X00905394Y01273615D01*
X00905587Y01275080D01*
X00905281Y01277401D01*
X00904385Y01279563D01*
X00902960Y01281420D01*
X00901103Y01282845D01*
X00898941Y01283741D01*
X00896620Y01284047D01*
X00894299Y01283741D01*
X00892137Y01282845D01*
X00890280Y01281420D01*
X00888855Y01279563D01*
X00887959Y01277401D01*
X00887653Y01275080D01*
X00887959Y01272759D01*
X00888855Y01270597D01*
X00890280Y01268740D01*
X00892137Y01267315D01*
X00894299Y01266419D01*
X00896520Y01266126D01*
Y01247082D01*
X00894454Y01245496D01*
X00892825Y01243374D01*
X00891802Y01240902D01*
X00891452Y01238250D01*
X00891802Y01235598D01*
X00892825Y01233126D01*
X00893888Y01231740D01*
X00893262Y01230471D01*
X00891038D01*
X00886114Y01235394D01*
X00886199Y01235598D01*
X00886548Y01238250D01*
X00886199Y01240902D01*
X00885175Y01243374D01*
X00883546Y01245496D01*
X00881424Y01247125D01*
X00878952Y01248148D01*
X00876300Y01248498D01*
X00873648Y01248148D01*
X00871176Y01247125D01*
X00869054Y01245496D01*
X00867425Y01243374D01*
X00866402Y01240902D01*
X00866052Y01238250D01*
X00866402Y01235598D01*
X00867425Y01233126D01*
X00869054Y01231004D01*
X00871176Y01229375D01*
X00873648Y01228352D01*
X00876300Y01228002D01*
X00878952Y01228352D01*
X00879156Y01228436D01*
X00884461Y01223130D01*
X00884213Y01221884D01*
X00883937Y01221770D01*
X00881839Y01220161D01*
X00880230Y01218063D01*
X00879687Y01216753D01*
X00878313D01*
X00877770Y01218063D01*
X00876161Y01220161D01*
X00874063Y01221770D01*
X00871621Y01222781D01*
X00869000Y01223127D01*
X00866379Y01222781D01*
X00863937Y01221770D01*
X00861839Y01220161D01*
X00860310Y01218167D01*
X00860168Y01218166D01*
X00859040Y01219018D01*
Y01223040D01*
X00838960D01*
Y01202960D01*
X00859040D01*
Y01206982D01*
X00860168Y01207834D01*
X00860310Y01207832D01*
X00861839Y01205839D01*
X00863937Y01204230D01*
X00866379Y01203218D01*
X00869000Y01202873D01*
X00871621Y01203218D01*
X00874063Y01204230D01*
X00876161Y01205839D01*
X00877770Y01207936D01*
X00878313Y01209247D01*
X00879687D01*
X00880230Y01207936D01*
X00881839Y01205839D01*
X00883937Y01204230D01*
X00886379Y01203218D01*
X00889000Y01202873D01*
X00891621Y01203218D01*
X00894063Y01204230D01*
X00896161Y01205839D01*
X00897770Y01207936D01*
X00898313Y01209247D01*
X00899687D01*
X00900230Y01207936D01*
X00901839Y01205839D01*
X00903937Y01204230D01*
X00906379Y01203218D01*
X00909000Y01202873D01*
X00911621Y01203218D01*
X00914063Y01204230D01*
X00916161Y01205839D01*
X00917770Y01207936D01*
X00918313Y01209247D01*
X00919687D01*
X00920230Y01207936D01*
X00921839Y01205839D01*
X00923937Y01204230D01*
X00926379Y01203218D01*
X00929000Y01202873D01*
X00931621Y01203218D01*
X00934063Y01204230D01*
X00936161Y01205839D01*
X00937770Y01207936D01*
X00938782Y01210379D01*
X00939127Y01213000D01*
X00938782Y01215621D01*
X00938129Y01217196D01*
X00939205Y01217916D01*
X00944627Y01212494D01*
X00944550Y01211014D01*
X00943620Y01210300D01*
X00942195Y01208443D01*
X00941299Y01206281D01*
X00940993Y01203960D01*
X00941299Y01201639D01*
X00942195Y01199477D01*
X00943620Y01197620D01*
X00945477Y01196195D01*
X00947639Y01195299D01*
X00949960Y01194993D01*
X00952281Y01195299D01*
X00954443Y01196195D01*
X00956300Y01197620D01*
X00957725Y01199477D01*
X00958621Y01201639D01*
X00958927Y01203960D01*
X00958621Y01206281D01*
X00957725Y01208443D01*
X00956300Y01210300D01*
X00954881Y01211390D01*
Y01214120D01*
X00954506Y01216003D01*
X00953439Y01217599D01*
X00942009Y01229029D01*
X00940413Y01230096D01*
X00938530Y01230471D01*
X00935538D01*
X00934911Y01231740D01*
X00935975Y01233126D01*
X00936999Y01235598D01*
X00937348Y01238250D01*
X00937008Y01240833D01*
X00954893Y01258717D01*
X00956015Y01260398D01*
X00956410Y01262380D01*
Y01278009D01*
X00957570Y01278900D01*
X00958995Y01280757D01*
X00959891Y01282919D01*
X00960197Y01285240D01*
X00959891Y01287561D01*
X00958995Y01289723D01*
X00957570Y01291580D01*
X00955713Y01293005D01*
X00953551Y01293901D01*
X00951230Y01294207D01*
D02*
G37*
G36*
X00660400Y01320894D02*
X00655617Y01320518D01*
X00650952Y01319398D01*
X00646520Y01317562D01*
X00642429Y01315055D01*
X00638781Y01311939D01*
X00635665Y01308291D01*
X00633158Y01304200D01*
X00631322Y01299768D01*
X00630202Y01295103D01*
X00629826Y01290320D01*
X00630202Y01285537D01*
X00631322Y01280872D01*
X00633158Y01276440D01*
X00635665Y01272349D01*
X00638781Y01268701D01*
X00642429Y01265585D01*
X00646520Y01263078D01*
X00650952Y01261242D01*
X00655617Y01260122D01*
X00660400Y01259746D01*
X00665183Y01260122D01*
X00669848Y01261242D01*
X00674280Y01263078D01*
X00678371Y01265585D01*
X00682019Y01268701D01*
X00685135Y01272349D01*
X00687642Y01276440D01*
X00689478Y01280872D01*
X00690598Y01285537D01*
X00690974Y01290320D01*
X00690598Y01295103D01*
X00689478Y01299768D01*
X00687642Y01304200D01*
X00685135Y01308291D01*
X00682019Y01311939D01*
X00678371Y01315055D01*
X00674280Y01317562D01*
X00669848Y01319398D01*
X00665183Y01320518D01*
X00660400Y01320894D01*
D02*
G37*
%LPD*%
D35*
X00939800Y00909320D02*
X00975360D01*
X00980440Y00904240D01*
X00882650Y01052830D02*
X00927100Y01008380D01*
X00826770Y01052830D02*
X00882650D01*
X00664210Y01229360D02*
X00825500Y01390650D01*
X00660400Y01229360D02*
X00664210D01*
X00858520Y01181100D02*
X00868680Y01170940D01*
Y01127760D02*
Y01170940D01*
D37*
X01074382Y00840483D02*
X01084341Y00850442D01*
Y00875907D01*
X00679050Y01007510D02*
X00704850Y00981710D01*
X00636270Y01007510D02*
X00679050D01*
X00914400Y00906780D02*
Y00916940D01*
X00984250Y00986790D01*
X00566420Y01193800D02*
X00584200Y01176020D01*
X00635000D01*
D38*
X00808990Y01183640D02*
Y01229180D01*
X00812800Y01232990D01*
Y01359989D01*
X00838200Y01385390D01*
Y01395910D01*
X00830760Y01403350D02*
X00838200Y01395910D01*
X00787400Y01403350D02*
X00830760D01*
X00774700Y01390650D02*
X00787400Y01403350D01*
X00896620Y01275080D02*
X00901700Y01270000D01*
Y01238250D02*
Y01270000D01*
X00951230Y01262380D02*
Y01285240D01*
X00927100Y01238250D02*
X00951230Y01262380D01*
D40*
X00757016Y00883967D02*
X01047406D01*
X00755650Y00981710D02*
X00773830D01*
X00814470Y01022350D01*
D41*
X00864000Y01068000D02*
D03*
X00889000D02*
D03*
X00914000D02*
D03*
D42*
X00929000Y01213000D02*
D03*
X00909000D02*
D03*
X00889000D02*
D03*
X00869000D02*
D03*
D43*
X00849000D02*
D03*
D44*
X00945000Y01143000D02*
D03*
X00833000D02*
D03*
D45*
X01130300Y01206500D02*
D03*
X00834390Y00955040D02*
D03*
X00660400Y01290320D02*
D03*
D46*
X01084341Y00875907D02*
D03*
X01074382Y00840483D02*
D03*
X01048258Y00883115D02*
D03*
X00786164Y00835445D02*
D03*
X00730684Y00832288D02*
D03*
X00757016Y00883967D02*
D03*
D47*
X01054100Y01238250D02*
D03*
D48*
X01028700D02*
D03*
X01003300D02*
D03*
X00977900D02*
D03*
X00952500D02*
D03*
X00927100D02*
D03*
X00901700D02*
D03*
X00876300D02*
D03*
X00850900D02*
D03*
X00825500D02*
D03*
X00800100D02*
D03*
X00774700D02*
D03*
X00749300D02*
D03*
X00723900D02*
D03*
Y01390650D02*
D03*
X00749300D02*
D03*
X00774700D02*
D03*
X00800100D02*
D03*
X00825500D02*
D03*
X00850900D02*
D03*
X00876300D02*
D03*
X00901700D02*
D03*
X00927100D02*
D03*
X00952500D02*
D03*
X00977900D02*
D03*
X01003300D02*
D03*
X01028700D02*
D03*
X01054100D02*
D03*
D49*
X00755650Y00981710D02*
D03*
D50*
X00730250D02*
D03*
X00704850D02*
D03*
D51*
X01130300Y01115060D02*
D03*
X00899160Y00990600D02*
D03*
X00889000Y00914400D02*
D03*
X01000760Y00909320D02*
D03*
X01168400Y00934720D02*
D03*
X01198880Y01082040D02*
D03*
X01234440Y01209040D02*
D03*
X01153160Y01300480D02*
D03*
X01097280Y01427480D02*
D03*
X00975360Y01488440D02*
D03*
X00838200Y01493520D02*
D03*
X00706120Y01447800D02*
D03*
X00782320Y01417320D02*
D03*
X00853440Y01442720D02*
D03*
X00949960Y01351280D02*
D03*
X00899160D02*
D03*
X00701040Y00939800D02*
D03*
X00949960Y01203960D02*
D03*
Y01183640D02*
D03*
X00939800Y00909320D02*
D03*
X00980440Y00904240D02*
D03*
X00927100Y01008380D02*
D03*
X00826770Y01052830D02*
D03*
X00660400Y01229360D02*
D03*
X00808990Y01183640D02*
D03*
X00858520Y01181100D02*
D03*
X00868680Y01127760D02*
D03*
X00896620Y01275080D02*
D03*
X00951230Y01285240D02*
D03*
X00615731Y00982760D02*
D03*
X00598170Y01203960D02*
D03*
X00697230Y01334770D02*
D03*
X01023590Y01090900D02*
D03*
X01004570Y01120140D02*
D03*
X01040130Y01211580D02*
D03*
X00805180Y01052830D02*
D03*
X00831850Y01352550D02*
D03*
X00914400Y00906780D02*
D03*
X00984250Y00986790D02*
D03*
X00924560Y01422400D02*
D03*
X00566420Y01193800D02*
D03*
X00635000Y01176020D02*
D03*
D52*
X00636270Y01007510D02*
D03*
Y01057510D02*
D03*
D53*
X00814470Y01022350D02*
D03*
X00864470D02*
D03*
D54*
X00730250Y01117460D02*
D03*
D55*
X00876300Y01238250D02*
X00889000Y01225550D01*
X00938530D01*
X00949960Y01214120D01*
Y01203960D02*
Y01214120D01*
M02*
