G04 Layer_Color=65535*
%FSAX44Y44*%
%MOMM*%
G71*
G01*
G75*
%ADD56C,0.2500*%
%ADD57C,0.2540*%
%ADD58C,0.2000*%
%ADD59R,2.6000X0.7778*%
D56*
X01117590Y01090900D02*
G03*
X01117590Y01090900I-00001250J00000000D01*
G01*
X01017250Y00985580D02*
G03*
X01017250Y00985580I-00001250J00000000D01*
G01*
X00887930Y01297240D02*
G03*
X00887930Y01297240I-00001250J00000000D01*
G01*
X00943810D02*
G03*
X00943810Y01297240I-00001250J00000000D01*
G01*
X00999690D02*
G03*
X00999690Y01297240I-00001250J00000000D01*
G01*
X00841484Y01033279D02*
G03*
X00841484Y01033279I00000000J00001250D01*
G01*
D57*
X00919000Y01143000D02*
G03*
X00919000Y01143000I-00030000J00000000D01*
G01*
X00948862Y01005840D02*
G03*
X00948862Y01005840I-00014142J00000000D01*
G01*
X00829000Y01213000D02*
X00834000D01*
X00824000Y01208000D02*
X00829000Y01213000D01*
X00824000Y01163000D02*
Y01208000D01*
Y01073000D02*
Y01123000D01*
Y01073000D02*
X00829000Y01068000D01*
X00849000D01*
X00929000D02*
X00949000D01*
X00954000Y01073000D01*
Y01123000D01*
Y01163000D02*
Y01208000D01*
X00949000Y01213000D02*
X00954000Y01208000D01*
X00944000Y01213000D02*
X00949000D01*
X00662471Y00888187D02*
X00666007Y00884651D01*
X00634187Y00888187D02*
X00662471Y00888187D01*
X00630652Y00884651D02*
X00634187Y00888187D01*
X00666007Y00884651D02*
X00671310Y00889955D01*
X00625348Y00914703D02*
X00635955Y00925310D01*
X00612974Y00902329D02*
X00648329Y00866974D01*
X00660703Y00879348D02*
X00671310Y00889955D01*
X00648329Y00937685D02*
X00683685Y00902329D01*
X00582202Y00994272D02*
X00584116Y00989653D01*
X00556071Y01005096D02*
X00582202Y00994272D01*
X00551451Y01003183D02*
X00556071Y01005096D01*
X00584116Y00989653D02*
X00591045Y00992523D01*
X00558052Y01032977D02*
X00571911Y01038717D01*
X00541884Y01026280D02*
X00561018Y00980086D01*
X00577187Y00986783D02*
X00591045Y00992523D01*
X00588078Y01045414D02*
X00607212Y00999220D01*
X00548640Y01118000D02*
Y01123000D01*
X00528640Y01143000D02*
X00548640Y01123000D01*
X00523640Y01143000D02*
X00528640D01*
X00548640Y01118000D02*
X00556140D01*
X00541140Y01168000D02*
X00556140D01*
X00523640Y01118000D02*
Y01168000D01*
X00541140Y01118000D02*
X00556140D01*
X00573640D02*
Y01168000D01*
X00564981Y01250153D02*
X00566894Y01254773D01*
X00556071Y01280904D02*
X00566894Y01254773D01*
X00551451Y01282817D02*
X00556071Y01280904D01*
X00564981Y01250153D02*
X00571911Y01247283D01*
X00577187Y01299217D02*
X00591045Y01293477D01*
X00541884Y01259720D02*
X00561018Y01305914D01*
X00558052Y01253023D02*
X00571911Y01247283D01*
X00588078Y01240586D02*
X00607212Y01286780D01*
X00630652Y01365993D02*
X00634187Y01369529D01*
X00634187Y01397813D01*
X00630652Y01401349D02*
X00634187Y01397813D01*
X00630652Y01365993D02*
X00635955Y01360690D01*
X00660703Y01406652D02*
X00671310Y01396046D01*
X00612974Y01383671D02*
X00648329Y01419026D01*
X00625348Y01371297D02*
X00635955Y01360690D01*
X00648329Y01348315D02*
X00683685Y01383671D01*
X00735653Y01447884D02*
X00740272Y01449798D01*
X00751096Y01475930D01*
X00749183Y01480549D02*
X00751096Y01475930D01*
X00735653Y01447884D02*
X00738523Y01440956D01*
X00778977Y01473948D02*
X00784717Y01460090D01*
X00726086Y01470982D02*
X00772280Y01490116D01*
X00732783Y01454813D02*
X00738523Y01440956D01*
X00745220Y01424788D02*
X00791414Y01443922D01*
X00864000Y01483360D02*
X00869000D01*
X00889000Y01503360D01*
Y01508360D01*
X00864000Y01475860D02*
Y01483360D01*
X00914000Y01475860D02*
Y01490860D01*
X00864000Y01508360D02*
X00914000D01*
X00864000Y01475860D02*
Y01490860D01*
Y01458360D02*
X00914000D01*
X00996153Y01467019D02*
X01000773Y01465105D01*
X01026904Y01475930D01*
X01028817Y01480549D01*
X00993283Y01460090D02*
X00996153Y01467019D01*
X01039477Y01440956D02*
X01045217Y01454813D01*
X01005720Y01490116D02*
X01051914Y01470982D01*
X00993283Y01460090D02*
X00999023Y01473948D01*
X00986586Y01443922D02*
X01032780Y01424788D01*
X01111993Y01401349D02*
X01115529Y01397813D01*
X01143813Y01397813D01*
X01147348Y01401349D01*
X01106690Y01396046D02*
X01111993Y01401349D01*
X01142046Y01360690D02*
X01152652Y01371297D01*
X01129671Y01419026D02*
X01165026Y01383671D01*
X01106690Y01396046D02*
X01117297Y01406652D01*
X01094315Y01383671D02*
X01129671Y01348315D01*
X01194087Y01296430D02*
X01195959Y01291794D01*
X01221995Y01280742D01*
X01226631Y01282615D01*
X01187132Y01293620D02*
X01194087Y01296430D01*
X01205863Y01247261D02*
X01219771Y01252880D01*
X01217266Y01305795D02*
X01235996Y01259436D01*
X01187132Y01293620D02*
X01201040Y01299240D01*
X01170907Y01287065D02*
X01189637Y01240705D01*
X01229360Y01163000D02*
Y01168000D01*
Y01163000D02*
X01249360Y01143000D01*
X01254360D01*
X01221860Y01168000D02*
X01229360D01*
X01221860Y01118000D02*
X01236860D01*
X01254360D02*
Y01168000D01*
X01221860D02*
X01236860D01*
X01204360Y01118000D02*
Y01168000D01*
X01211105Y01031227D02*
X01213019Y01035847D01*
X01211105Y01031227D02*
X01221929Y01005096D01*
X01226549Y01003183D01*
X01206089Y01038717D02*
X01213019Y01035847D01*
X01186956Y00992523D02*
X01200813Y00986783D01*
X01216982Y00980086D02*
X01236116Y01026280D01*
X01206089Y01038717D02*
X01219948Y01032977D01*
X01170788Y00999220D02*
X01189922Y01045414D01*
X01143813Y00916471D02*
X01147348Y00920007D01*
X01143813Y00888187D02*
X01143813Y00916471D01*
X01143813Y00888187D02*
X01147348Y00884651D01*
X01142046Y00925310D02*
X01147348Y00920007D01*
X01106690Y00889955D02*
X01117297Y00879348D01*
X01129671Y00866974D02*
X01165026Y00902329D01*
X01142046Y00925310D02*
X01152652Y00914703D01*
X01094315Y00902329D02*
X01129671Y00937685D01*
X00723900Y01287780D02*
Y01303020D01*
X00716280Y01310640D02*
X00723900Y01303020D01*
Y01313180D02*
Y01333500D01*
X00749300Y01313180D02*
Y01333500D01*
X00741680Y01310640D02*
X00749300Y01303020D01*
Y01287780D02*
Y01303020D01*
X00774700Y01313180D02*
Y01333500D01*
X00767080Y01310640D02*
X00774700Y01303020D01*
Y01287780D02*
Y01303020D01*
X00800100Y01313180D02*
Y01333500D01*
X00792480Y01310640D02*
X00800100Y01303020D01*
Y01287780D02*
Y01303020D01*
X00966969Y00896899D02*
X00974542Y00800676D01*
X00850490Y00887731D02*
X00858062Y00791509D01*
X00894779Y00794399D02*
X00906443Y00808056D01*
X00881121Y00806063D02*
X00906443Y00808056D01*
X00881121Y00806063D02*
X00894779Y00794399D01*
X00889797Y00857703D02*
X00893782Y00807060D01*
X00858062Y00791509D02*
X00974542Y00800676D01*
X00850490Y00887731D02*
X00966969Y00896899D01*
X00769418Y00809186D02*
X00776228Y00822551D01*
X00792117Y00853736D02*
X00798927Y00867101D01*
X00796742Y00873826D02*
X00798927Y00867101D01*
X00774467Y00885176D02*
X00796742Y00873826D01*
X00725462Y00910145D02*
X00747737Y00898795D01*
X00718737Y00907960D02*
X00725462Y00910145D01*
X00689227Y00850044D02*
X00718737Y00907960D01*
X00934720Y00991840D02*
Y01019840D01*
X00619757Y01137920D02*
X00612140Y01145537D01*
X00619757Y01153155D01*
X00627375Y01145537D02*
X00637532D01*
X00642610Y01137920D02*
X00647689D01*
X00645149D01*
Y01153155D01*
X00642610Y01150616D01*
X00655306Y01148077D02*
Y01140459D01*
X00657845Y01137920D01*
X00665463D01*
Y01148077D01*
X00680698Y01153155D02*
X00670541D01*
Y01145537D01*
X00675620D01*
X00670541D01*
Y01137920D01*
X01143000Y01107440D02*
Y01122675D01*
X01150618D01*
X01153157Y01120136D01*
Y01115058D01*
X01150618Y01112518D01*
X01143000D01*
X01158235Y01122675D02*
Y01107440D01*
X01163313Y01112518D01*
X01168392Y01107440D01*
Y01122675D01*
X01173470Y01107440D02*
Y01122675D01*
X01178549Y01117597D01*
X01183627Y01122675D01*
Y01107440D01*
X00723897Y00932180D02*
X00716280Y00939798D01*
X00723897Y00947415D01*
X00731515Y00939798D02*
X00741672D01*
X00756907Y00944876D02*
X00754368Y00947415D01*
X00749289D01*
X00746750Y00944876D01*
Y00934719D01*
X00749289Y00932180D01*
X00754368D01*
X00756907Y00934719D01*
Y00939798D01*
X00751829D01*
X00761985Y00932180D02*
Y00947415D01*
X00772142Y00932180D01*
Y00947415D01*
X00777220D02*
Y00932180D01*
X00784838D01*
X00787377Y00934719D01*
Y00944876D01*
X00784838Y00947415D01*
X00777220D01*
X00995680Y01003298D02*
X00988063Y00995680D01*
X00980445Y01003298D01*
X00988063Y01010915D02*
Y01021072D01*
X00980445Y01026150D02*
X00990602D01*
X00995680Y01031228D01*
X00990602Y01036307D01*
X00980445D01*
X00982984Y01051542D02*
X00980445Y01049003D01*
Y01043924D01*
X00982984Y01041385D01*
X00993141D01*
X00995680Y01043924D01*
Y01049003D01*
X00993141Y01051542D01*
X00982984Y01066777D02*
X00980445Y01064238D01*
Y01059159D01*
X00982984Y01056620D01*
X00993141D01*
X00995680Y01059159D01*
Y01064238D01*
X00993141Y01066777D01*
X00980445Y01082012D02*
Y01071855D01*
X00988063D01*
X00985523Y01076934D01*
Y01079473D01*
X00988063Y01082012D01*
X00993141D01*
X00995680Y01079473D01*
Y01074395D01*
X00993141Y01071855D01*
X00848357Y01038860D02*
X00840740Y01046478D01*
X00848357Y01054095D01*
X00855975Y01046478D02*
X00866132D01*
X00871210Y01054095D02*
Y01043938D01*
X00876289Y01038860D01*
X00881367Y01043938D01*
Y01054095D01*
X00886445Y01036321D02*
X00896602D01*
X00901680Y01033782D02*
Y01049017D01*
X00909298D01*
X00911837Y01046478D01*
Y01041399D01*
X00909298Y01038860D01*
X00901680D01*
X01125220Y01097275D02*
Y01084579D01*
X01127759Y01082040D01*
X01132838D01*
X01135377Y01084579D01*
Y01097275D01*
X01140455Y01082040D02*
X01145533D01*
X01142994D01*
Y01097275D01*
X01140455Y01094736D01*
X01153151Y01082040D02*
X01158229D01*
X01155690D01*
Y01097275D01*
X01153151Y01094736D01*
X00820420Y00911855D02*
Y00899159D01*
X00822959Y00896620D01*
X00828037D01*
X00830577Y00899159D01*
Y00911855D01*
X00835655Y00896620D02*
X00840733D01*
X00838194D01*
Y00911855D01*
X00835655Y00909316D01*
X00848351D02*
X00850890Y00911855D01*
X00855968D01*
X00858508Y00909316D01*
Y00899159D01*
X00855968Y00896620D01*
X00850890D01*
X00848351Y00899159D01*
Y00909316D01*
X00800100Y01026155D02*
Y01013459D01*
X00802639Y01010920D01*
X00807718D01*
X00810257Y01013459D01*
Y01026155D01*
X00815335Y01013459D02*
X00817874Y01010920D01*
X00822953D01*
X00825492Y01013459D01*
Y01023616D01*
X00822953Y01026155D01*
X00817874D01*
X00815335Y01023616D01*
Y01021077D01*
X00817874Y01018538D01*
X00825492D01*
X00825497Y01271266D02*
X00822958Y01273805D01*
X00817879D01*
X00815340Y01271266D01*
Y01268727D01*
X00817879Y01266188D01*
X00822958D01*
X00825497Y01263648D01*
Y01261109D01*
X00822958Y01258570D01*
X00817879D01*
X00815340Y01261109D01*
X00830575Y01273805D02*
Y01258570D01*
X00835653Y01263648D01*
X00840732Y01258570D01*
Y01273805D01*
X00845810Y01258570D02*
X00850889D01*
X00848349D01*
Y01273805D01*
X00845810Y01271266D01*
X00929637Y01191256D02*
X00927097Y01193795D01*
X00922019D01*
X00919480Y01191256D01*
Y01188717D01*
X00922019Y01186178D01*
X00927097D01*
X00929637Y01183638D01*
Y01181099D01*
X00927097Y01178560D01*
X00922019D01*
X00919480Y01181099D01*
X00934715Y01191256D02*
X00937254Y01193795D01*
X00942333D01*
X00944872Y01191256D01*
Y01188717D01*
X00942333Y01186178D01*
X00939793D01*
X00942333D01*
X00944872Y01183638D01*
Y01181099D01*
X00942333Y01178560D01*
X00937254D01*
X00934715Y01181099D01*
X00972820Y01361440D02*
Y01376675D01*
X00980437D01*
X00982977Y01374136D01*
Y01369057D01*
X00980437Y01366518D01*
X00972820D01*
X00977898D02*
X00982977Y01361440D01*
X00998212D02*
X00988055D01*
X00998212Y01371597D01*
Y01374136D01*
X00995673Y01376675D01*
X00990594D01*
X00988055Y01374136D01*
X01003290Y01363979D02*
X01005829Y01361440D01*
X01010908D01*
X01013447Y01363979D01*
Y01374136D01*
X01010908Y01376675D01*
X01005829D01*
X01003290Y01374136D01*
Y01371597D01*
X01005829Y01369057D01*
X01013447D01*
X00916940Y01361440D02*
Y01376675D01*
X00924557D01*
X00927097Y01374136D01*
Y01369057D01*
X00924557Y01366518D01*
X00916940D01*
X00922018D02*
X00927097Y01361440D01*
X00942332D02*
X00932175D01*
X00942332Y01371597D01*
Y01374136D01*
X00939793Y01376675D01*
X00934714D01*
X00932175Y01374136D01*
X00947410D02*
X00949949Y01376675D01*
X00955028D01*
X00957567Y01374136D01*
Y01371597D01*
X00955028Y01369057D01*
X00957567Y01366518D01*
Y01363979D01*
X00955028Y01361440D01*
X00949949D01*
X00947410Y01363979D01*
Y01366518D01*
X00949949Y01369057D01*
X00947410Y01371597D01*
Y01374136D01*
X00949949Y01369057D02*
X00955028D01*
X01031240Y01183640D02*
Y01198875D01*
X01038857D01*
X01041397Y01196336D01*
Y01191257D01*
X01038857Y01188718D01*
X01031240D01*
X01036318D02*
X01041397Y01183640D01*
X01056632D02*
X01046475D01*
X01056632Y01193797D01*
Y01196336D01*
X01054093Y01198875D01*
X01049014D01*
X01046475Y01196336D01*
X01061710Y01198875D02*
X01071867D01*
Y01196336D01*
X01061710Y01186179D01*
Y01183640D01*
X00861060Y01361440D02*
Y01376675D01*
X00868678D01*
X00871217Y01374136D01*
Y01369057D01*
X00868678Y01366518D01*
X00861060D01*
X00866138D02*
X00871217Y01361440D01*
X00886452D02*
X00876295D01*
X00886452Y01371597D01*
Y01374136D01*
X00883913Y01376675D01*
X00878834D01*
X00876295Y01374136D01*
X00901687Y01376675D02*
X00896609Y01374136D01*
X00891530Y01369057D01*
Y01363979D01*
X00894069Y01361440D01*
X00899148D01*
X00901687Y01363979D01*
Y01366518D01*
X00899148Y01369057D01*
X00891530D01*
X00965200Y01158240D02*
Y01173475D01*
X00972818D01*
X00975357Y01170936D01*
Y01165857D01*
X00972818Y01163318D01*
X00965200D01*
X00970278D02*
X00975357Y01158240D01*
X00990592D02*
X00980435D01*
X00990592Y01168397D01*
Y01170936D01*
X00988053Y01173475D01*
X00982974D01*
X00980435Y01170936D01*
X01005827Y01173475D02*
X00995670D01*
Y01165857D01*
X01000749Y01168397D01*
X01003288D01*
X01005827Y01165857D01*
Y01160779D01*
X01003288Y01158240D01*
X00998209D01*
X00995670Y01160779D01*
X00977900Y01127760D02*
Y01142995D01*
X00985518D01*
X00988057Y01140456D01*
Y01135378D01*
X00985518Y01132838D01*
X00977900D01*
X00982978D02*
X00988057Y01127760D01*
X01003292D02*
X00993135D01*
X01003292Y01137917D01*
Y01140456D01*
X01000753Y01142995D01*
X00995674D01*
X00993135Y01140456D01*
X01015988Y01127760D02*
Y01142995D01*
X01008370Y01135378D01*
X01018527D01*
X01076960Y01127760D02*
Y01142995D01*
X01084577D01*
X01087117Y01140456D01*
Y01135378D01*
X01084577Y01132838D01*
X01076960D01*
X01082038D02*
X01087117Y01127760D01*
X01102352D02*
X01092195D01*
X01102352Y01137917D01*
Y01140456D01*
X01099813Y01142995D01*
X01094734D01*
X01092195Y01140456D01*
X01107430D02*
X01109969Y01142995D01*
X01115048D01*
X01117587Y01140456D01*
Y01137917D01*
X01115048Y01135378D01*
X01112508D01*
X01115048D01*
X01117587Y01132838D01*
Y01130299D01*
X01115048Y01127760D01*
X01109969D01*
X01107430Y01130299D01*
X00929640Y00944880D02*
Y00960115D01*
X00937258D01*
X00939797Y00957576D01*
Y00952497D01*
X00937258Y00949958D01*
X00929640D01*
X00934718D02*
X00939797Y00944880D01*
X00955032D02*
X00944875D01*
X00955032Y00955037D01*
Y00957576D01*
X00952493Y00960115D01*
X00947414D01*
X00944875Y00957576D01*
X00970267Y00944880D02*
X00960110D01*
X00970267Y00955037D01*
Y00957576D01*
X00967728Y00960115D01*
X00962649D01*
X00960110Y00957576D01*
X00951227Y01313179D02*
Y01323336D01*
X00948688Y01325875D01*
X00943609D01*
X00941070Y01323336D01*
Y01313179D01*
X00943609Y01310640D01*
X00948688D01*
X00946148Y01315718D02*
X00951227Y01310640D01*
X00948688D02*
X00951227Y01313179D01*
X00966462Y01325875D02*
X00956305D01*
Y01318257D01*
X00961383Y01320797D01*
X00963923D01*
X00966462Y01318257D01*
Y01313179D01*
X00963923Y01310640D01*
X00958844D01*
X00956305Y01313179D01*
X00895347D02*
Y01323336D01*
X00892807Y01325875D01*
X00887729D01*
X00885190Y01323336D01*
Y01313179D01*
X00887729Y01310640D01*
X00892807D01*
X00890268Y01315718D02*
X00895347Y01310640D01*
X00892807D02*
X00895347Y01313179D01*
X00908043Y01310640D02*
Y01325875D01*
X00900425Y01318257D01*
X00910582D01*
X00838197Y01313179D02*
Y01323336D01*
X00835658Y01325875D01*
X00830579D01*
X00828040Y01323336D01*
Y01313179D01*
X00830579Y01310640D01*
X00835658D01*
X00833118Y01315718D02*
X00838197Y01310640D01*
X00835658D02*
X00838197Y01313179D01*
X00843275Y01323336D02*
X00845814Y01325875D01*
X00850893D01*
X00853432Y01323336D01*
Y01320797D01*
X00850893Y01318257D01*
X00848353D01*
X00850893D01*
X00853432Y01315718D01*
Y01313179D01*
X00850893Y01310640D01*
X00845814D01*
X00843275Y01313179D01*
X00947420Y01043940D02*
Y01059175D01*
X00955038D01*
X00957577Y01056636D01*
Y01051557D01*
X00955038Y01049018D01*
X00947420D01*
X00972812Y01059175D02*
X00967733Y01056636D01*
X00962655Y01051557D01*
Y01046479D01*
X00965194Y01043940D01*
X00970273D01*
X00972812Y01046479D01*
Y01049018D01*
X00970273Y01051557D01*
X00962655D01*
X01004189Y01075304D02*
Y01060069D01*
X01011806D01*
X01014346Y01062608D01*
Y01072765D01*
X01011806Y01075304D01*
X01004189D01*
X01019424Y01072765D02*
X01021963Y01075304D01*
X01027042D01*
X01029581Y01072765D01*
Y01070226D01*
X01027042Y01067686D01*
X01024502D01*
X01027042D01*
X01029581Y01065147D01*
Y01062608D01*
X01027042Y01060069D01*
X01021963D01*
X01019424Y01062608D01*
X00711197Y01092196D02*
X00708658Y01094735D01*
X00703579D01*
X00701040Y01092196D01*
Y01082039D01*
X00703579Y01079500D01*
X00708658D01*
X00711197Y01082039D01*
X00716275Y01079500D02*
X00721353D01*
X00718814D01*
Y01094735D01*
X00716275Y01092196D01*
X00736589Y01079500D02*
Y01094735D01*
X00728971Y01087117D01*
X00739128D01*
X00711197Y01122676D02*
X00708658Y01125215D01*
X00703579D01*
X00701040Y01122676D01*
Y01112519D01*
X00703579Y01109980D01*
X00708658D01*
X00711197Y01112519D01*
X00716275Y01109980D02*
X00721353D01*
X00718814D01*
Y01125215D01*
X00716275Y01122676D01*
X00728971D02*
X00731510Y01125215D01*
X00736589D01*
X00739128Y01122676D01*
Y01120137D01*
X00736589Y01117598D01*
X00734049D01*
X00736589D01*
X00739128Y01115058D01*
Y01112519D01*
X00736589Y01109980D01*
X00731510D01*
X00728971Y01112519D01*
X01069337Y01295396D02*
X01066797Y01297935D01*
X01061719D01*
X01059180Y01295396D01*
Y01285239D01*
X01061719Y01282700D01*
X01066797D01*
X01069337Y01285239D01*
X01074415Y01282700D02*
X01079493D01*
X01076954D01*
Y01297935D01*
X01074415Y01295396D01*
X01097268Y01282700D02*
X01087111D01*
X01097268Y01292857D01*
Y01295396D01*
X01094728Y01297935D01*
X01089650D01*
X01087111Y01295396D01*
X00891537Y00960116D02*
X00888997Y00962655D01*
X00883919D01*
X00881380Y00960116D01*
Y00949959D01*
X00883919Y00947420D01*
X00888997D01*
X00891537Y00949959D01*
X00896615Y00947420D02*
X00901693D01*
X00899154D01*
Y00962655D01*
X00896615Y00960116D01*
X00909311Y00947420D02*
X00914389D01*
X00911850D01*
Y00962655D01*
X00909311Y00960116D01*
X01031237Y00962656D02*
X01028698Y00965195D01*
X01023619D01*
X01021080Y00962656D01*
Y00952499D01*
X01023619Y00949960D01*
X01028698D01*
X01031237Y00952499D01*
X01036315Y00949960D02*
X01041393D01*
X01038854D01*
Y00965195D01*
X01036315Y00962656D01*
X01049011D02*
X01051550Y00965195D01*
X01056628D01*
X01059168Y00962656D01*
Y00952499D01*
X01056628Y00949960D01*
X01051550D01*
X01049011Y00952499D01*
Y00962656D01*
X01031237Y00937256D02*
X01028698Y00939795D01*
X01023619D01*
X01021080Y00937256D01*
Y00927099D01*
X01023619Y00924560D01*
X01028698D01*
X01031237Y00927099D01*
X01036315D02*
X01038854Y00924560D01*
X01043933D01*
X01046472Y00927099D01*
Y00937256D01*
X01043933Y00939795D01*
X01038854D01*
X01036315Y00937256D01*
Y00934717D01*
X01038854Y00932178D01*
X01046472D01*
D58*
X01048540Y01057900D02*
Y01060900D01*
X01115540D01*
Y01057900D02*
Y01060900D01*
X01029000Y01015080D02*
Y01028430D01*
X01003000Y01015080D02*
X01029000D01*
X01003000D02*
Y01028430D01*
X01109773Y00949097D02*
X01118966Y00939905D01*
X01182220Y01162000D02*
X01195220D01*
X01152629Y01272764D02*
X01164639Y01277739D01*
X01082903Y01363773D02*
X01092095Y01372965D01*
X00927427Y01444645D02*
X00930463Y01457286D01*
X00870000Y01436220D02*
X00870000Y01449220D01*
X00799039Y01436324D02*
X00802074Y01423683D01*
X00659035Y01346095D02*
X00668227Y01336903D01*
X00598819Y01242632D02*
X00610829Y01237657D01*
X00582780Y01124000D02*
X00595780D01*
X00613361Y01008261D02*
X00625371Y01013236D01*
X00685905Y00913035D02*
X00695097Y00922227D01*
X01167171Y01048343D02*
X01179181Y01043369D01*
X00853680Y01278240D02*
X00861680D01*
X00853680D02*
Y01286240D01*
X00875680Y01278240D02*
X00883680D01*
Y01286240D01*
X00909560Y01278240D02*
X00917560D01*
X00909560D02*
Y01286240D01*
X00931560Y01278240D02*
X00939560D01*
Y01286240D01*
X00965440Y01278240D02*
X00973440D01*
X00965440D02*
Y01286240D01*
X00987440Y01278240D02*
X00995440D01*
Y01286240D01*
X01034900Y01309320D02*
X01047900D01*
X00854903Y01000496D02*
X00854977Y01031497D01*
X00851903Y01000503D02*
X00851977Y01031504D01*
X00851903Y01000503D02*
X00854903Y01000496D01*
X00851977Y01031504D02*
X00854977Y01031497D01*
X00786080Y01080620D02*
Y01093620D01*
Y01111100D02*
Y01124100D01*
X01009600Y00948540D02*
Y00961540D01*
Y00928220D02*
Y00941220D01*
X00880160Y00928220D02*
Y00941220D01*
D59*
X01016000Y01018972D02*
D03*
M02*
