G04 Layer_Color=8388736*
%FSAX44Y44*%
%MOMM*%
G71*
G01*
G75*
%ADD60R,1.7032X1.5032*%
%ADD61R,6.2032X7.6032*%
%ADD62R,1.4032X2.6032*%
G04:AMPARAMS|DCode=63|XSize=1.7032mm|YSize=1.1032mm|CornerRadius=0mm|HoleSize=0mm|Usage=FLASHONLY|Rotation=315.000|XOffset=0mm|YOffset=0mm|HoleType=Round|Shape=Rectangle|*
%AMROTATEDRECTD63*
4,1,4,-0.9922,0.2121,-0.2121,0.9922,0.9922,-0.2121,0.2121,-0.9922,-0.9922,0.2121,0.0*
%
%ADD63ROTATEDRECTD63*%

G04:AMPARAMS|DCode=64|XSize=1.7032mm|YSize=1.1032mm|CornerRadius=0mm|HoleSize=0mm|Usage=FLASHONLY|Rotation=292.500|XOffset=0mm|YOffset=0mm|HoleType=Round|Shape=Rectangle|*
%AMROTATEDRECTD64*
4,1,4,-0.8355,0.5757,0.1837,0.9979,0.8355,-0.5757,-0.1837,-0.9979,-0.8355,0.5757,0.0*
%
%ADD64ROTATEDRECTD64*%

%ADD65R,1.1032X1.7032*%
G04:AMPARAMS|DCode=66|XSize=1.7032mm|YSize=1.1032mm|CornerRadius=0mm|HoleSize=0mm|Usage=FLASHONLY|Rotation=247.500|XOffset=0mm|YOffset=0mm|HoleType=Round|Shape=Rectangle|*
%AMROTATEDRECTD66*
4,1,4,-0.1837,0.9979,0.8355,0.5757,0.1837,-0.9979,-0.8355,-0.5757,-0.1837,0.9979,0.0*
%
%ADD66ROTATEDRECTD66*%

G04:AMPARAMS|DCode=67|XSize=1.7032mm|YSize=1.1032mm|CornerRadius=0mm|HoleSize=0mm|Usage=FLASHONLY|Rotation=225.000|XOffset=0mm|YOffset=0mm|HoleType=Round|Shape=Rectangle|*
%AMROTATEDRECTD67*
4,1,4,0.2121,0.9922,0.9922,0.2121,-0.2121,-0.9922,-0.9922,-0.2121,0.2121,0.9922,0.0*
%
%ADD67ROTATEDRECTD67*%

G04:AMPARAMS|DCode=68|XSize=1.7032mm|YSize=1.1032mm|CornerRadius=0mm|HoleSize=0mm|Usage=FLASHONLY|Rotation=202.500|XOffset=0mm|YOffset=0mm|HoleType=Round|Shape=Rectangle|*
%AMROTATEDRECTD68*
4,1,4,0.5757,0.8355,0.9979,-0.1837,-0.5757,-0.8355,-0.9979,0.1837,0.5757,0.8355,0.0*
%
%ADD68ROTATEDRECTD68*%

%ADD69R,1.7032X1.1032*%
G04:AMPARAMS|DCode=70|XSize=1.7032mm|YSize=1.1032mm|CornerRadius=0mm|HoleSize=0mm|Usage=FLASHONLY|Rotation=157.500|XOffset=0mm|YOffset=0mm|HoleType=Round|Shape=Rectangle|*
%AMROTATEDRECTD70*
4,1,4,0.9979,0.1837,0.5757,-0.8355,-0.9979,-0.1837,-0.5757,0.8355,0.9979,0.1837,0.0*
%
%ADD70ROTATEDRECTD70*%

%ADD71R,2.2032X2.2032*%
G04:AMPARAMS|DCode=72|XSize=1.7032mm|YSize=1.5032mm|CornerRadius=0mm|HoleSize=0mm|Usage=FLASHONLY|Rotation=315.000|XOffset=0mm|YOffset=0mm|HoleType=Round|Shape=Rectangle|*
%AMROTATEDRECTD72*
4,1,4,-1.1336,0.0707,-0.0707,1.1336,1.1336,-0.0707,0.0707,-1.1336,-1.1336,0.0707,0.0*
%
%ADD72ROTATEDRECTD72*%

G04:AMPARAMS|DCode=73|XSize=1.7032mm|YSize=1.5032mm|CornerRadius=0mm|HoleSize=0mm|Usage=FLASHONLY|Rotation=22.500|XOffset=0mm|YOffset=0mm|HoleType=Round|Shape=Rectangle|*
%AMROTATEDRECTD73*
4,1,4,-0.4991,-1.0203,-1.0744,0.3685,0.4991,1.0203,1.0744,-0.3685,-0.4991,-1.0203,0.0*
%
%ADD73ROTATEDRECTD73*%

G04:AMPARAMS|DCode=74|XSize=1.7032mm|YSize=1.5032mm|CornerRadius=0mm|HoleSize=0mm|Usage=FLASHONLY|Rotation=45.000|XOffset=0mm|YOffset=0mm|HoleType=Round|Shape=Rectangle|*
%AMROTATEDRECTD74*
4,1,4,-0.0707,-1.1336,-1.1336,-0.0707,0.0707,1.1336,1.1336,0.0707,-0.0707,-1.1336,0.0*
%
%ADD74ROTATEDRECTD74*%

G04:AMPARAMS|DCode=75|XSize=1.7032mm|YSize=1.5032mm|CornerRadius=0mm|HoleSize=0mm|Usage=FLASHONLY|Rotation=76.500|XOffset=0mm|YOffset=0mm|HoleType=Round|Shape=Rectangle|*
%AMROTATEDRECTD75*
4,1,4,0.5320,-1.0035,-0.9296,-0.6526,-0.5320,1.0035,0.9296,0.6526,0.5320,-1.0035,0.0*
%
%ADD75ROTATEDRECTD75*%

%ADD76R,1.5032X1.7032*%
G04:AMPARAMS|DCode=77|XSize=1.7032mm|YSize=1.5032mm|CornerRadius=0mm|HoleSize=0mm|Usage=FLASHONLY|Rotation=103.500|XOffset=0mm|YOffset=0mm|HoleType=Round|Shape=Rectangle|*
%AMROTATEDRECTD77*
4,1,4,0.9296,-0.6526,-0.5320,-1.0035,-0.9296,0.6526,0.5320,1.0035,0.9296,-0.6526,0.0*
%
%ADD77ROTATEDRECTD77*%

G04:AMPARAMS|DCode=78|XSize=1.7032mm|YSize=1.5032mm|CornerRadius=0mm|HoleSize=0mm|Usage=FLASHONLY|Rotation=157.500|XOffset=0mm|YOffset=0mm|HoleType=Round|Shape=Rectangle|*
%AMROTATEDRECTD78*
4,1,4,1.0744,0.3685,0.4991,-1.0203,-1.0744,-0.3685,-0.4991,1.0203,1.0744,0.3685,0.0*
%
%ADD78ROTATEDRECTD78*%

%ADD79R,1.7272X2.4892*%
%ADD80R,0.8032X1.5532*%
G04:AMPARAMS|DCode=81|XSize=0.9032mm|YSize=1.5032mm|CornerRadius=0mm|HoleSize=0mm|Usage=FLASHONLY|Rotation=89.863|XOffset=0mm|YOffset=0mm|HoleType=Round|Shape=Rectangle|*
%AMROTATEDRECTD81*
4,1,4,0.7505,-0.4534,-0.7527,-0.4498,-0.7505,0.4534,0.7527,0.4498,0.7505,-0.4534,0.0*
%
%ADD81ROTATEDRECTD81*%

G04:AMPARAMS|DCode=82|XSize=3.2032mm|YSize=1.7272mm|CornerRadius=0mm|HoleSize=0mm|Usage=FLASHONLY|Rotation=184.500|XOffset=0mm|YOffset=0mm|HoleType=Round|Shape=Rectangle|*
%AMROTATEDRECTD82*
4,1,4,1.5289,0.9866,1.6644,-0.7353,-1.5289,-0.9866,-1.6644,0.7353,1.5289,0.9866,0.0*
%
%ADD82ROTATEDRECTD82*%

G04:AMPARAMS|DCode=83|XSize=3.2032mm|YSize=1.7272mm|CornerRadius=0.4826mm|HoleSize=0mm|Usage=FLASHONLY|Rotation=184.500|XOffset=0mm|YOffset=0mm|HoleType=Round|Shape=RoundedRectangle|*
%AMROUNDEDRECTD83*
21,1,3.2032,0.7620,0,0,184.5*
21,1,2.2380,1.7272,0,0,184.5*
1,1,0.9652,-1.1454,0.2920*
1,1,0.9652,1.0857,0.4676*
1,1,0.9652,1.1454,-0.2920*
1,1,0.9652,-1.0857,-0.4676*
%
%ADD83ROUNDEDRECTD83*%
%ADD84R,1.8032X2.2032*%
%ADD85C,1.9812*%
%ADD86C,1.7032*%
%ADD87R,1.7032X1.7032*%
%ADD88C,2.9532*%
%ADD89C,5.7912*%
%ADD90C,2.4032*%
%ADD91R,1.7272X1.7272*%
%ADD92C,1.7272*%
%ADD93R,2.2032X2.2032*%
%ADD94C,2.2032*%
%ADD95C,1.4732*%
D60*
X01031240Y01152500D02*
D03*
Y01133500D02*
D03*
X01061720D02*
D03*
Y01152500D02*
D03*
X00985520Y01184300D02*
D03*
Y01203300D02*
D03*
X01016000D02*
D03*
Y01184300D02*
D03*
X01188720Y01133500D02*
D03*
Y01152500D02*
D03*
X00589280D02*
D03*
Y01133500D02*
D03*
X00980440Y01331620D02*
D03*
Y01350620D02*
D03*
X00924560Y01331620D02*
D03*
Y01350620D02*
D03*
X00868680Y01331620D02*
D03*
Y01350620D02*
D03*
X01041400Y01280820D02*
D03*
Y01299820D02*
D03*
D61*
X01082040Y01016900D02*
D03*
D62*
X01059240Y01090900D02*
D03*
X01104840D02*
D03*
D63*
X00619338Y00907986D02*
D03*
X00653986Y00873338D02*
D03*
X00677320Y00896672D02*
D03*
X00642672Y00931320D02*
D03*
X01158662Y01378014D02*
D03*
X01124014Y01412662D02*
D03*
X01100679Y01389328D02*
D03*
X01135328Y01354680D02*
D03*
D64*
X00549929Y01029071D02*
D03*
X00568680Y00983800D02*
D03*
X00599168Y00996429D02*
D03*
X00580416Y01041699D02*
D03*
X01227928Y01256715D02*
D03*
X01209572Y01302147D02*
D03*
X01178975Y01289785D02*
D03*
X01197331Y01244353D02*
D03*
D65*
X00532140Y01167500D02*
D03*
Y01118500D02*
D03*
X00565140D02*
D03*
Y01167500D02*
D03*
X01245860Y01118500D02*
D03*
Y01167500D02*
D03*
X01212860D02*
D03*
Y01118500D02*
D03*
D66*
X00568680Y01302200D02*
D03*
X00549929Y01256929D02*
D03*
X00580416Y01244301D02*
D03*
X00599168Y01289571D02*
D03*
X01209320Y00983800D02*
D03*
X01228071Y01029071D02*
D03*
X01197584Y01041699D02*
D03*
X01178832Y00996429D02*
D03*
D67*
X00653986Y01412662D02*
D03*
X00619338Y01378014D02*
D03*
X00642672Y01354680D02*
D03*
X00677320Y01389328D02*
D03*
X01124014Y00873338D02*
D03*
X01158662Y00907986D02*
D03*
X01135328Y00931320D02*
D03*
X01100679Y00896672D02*
D03*
D68*
X00775071Y01482071D02*
D03*
X00729800Y01463320D02*
D03*
X00742429Y01432832D02*
D03*
X00787699Y01451584D02*
D03*
D69*
X00913500Y01499860D02*
D03*
X00864500D02*
D03*
Y01466860D02*
D03*
X00913500D02*
D03*
D70*
X01048200Y01463320D02*
D03*
X01002929Y01482071D02*
D03*
X00990301Y01451584D02*
D03*
X01035571Y01432832D02*
D03*
D71*
X01016000Y01001080D02*
D03*
Y01041080D02*
D03*
X00934720Y01035840D02*
D03*
D72*
X01094217Y00924349D02*
D03*
X01107651Y00937783D02*
D03*
X00683783Y01361652D02*
D03*
X00670349Y01348217D02*
D03*
D73*
X01169540Y01248921D02*
D03*
X01162270Y01266475D02*
D03*
X00608460Y01037079D02*
D03*
X00615731Y01019525D02*
D03*
D74*
X01107651Y01348217D02*
D03*
X01094217Y01361651D02*
D03*
X00670349Y00937783D02*
D03*
X00683783Y00924349D02*
D03*
D75*
X00956658Y01444312D02*
D03*
X00938183Y01448748D02*
D03*
D76*
X00898500Y01442720D02*
D03*
X00879500D02*
D03*
X00757580Y01087120D02*
D03*
X00776580D02*
D03*
X00757580Y01117600D02*
D03*
X00776580D02*
D03*
X00981100Y00955040D02*
D03*
X01000100D02*
D03*
X00981100Y00934720D02*
D03*
X01000100D02*
D03*
X00908660D02*
D03*
X00889660D02*
D03*
X00935380D02*
D03*
X00954380D02*
D03*
D77*
X00828269Y01436656D02*
D03*
X00809794Y01432221D02*
D03*
D78*
X00615731Y01266475D02*
D03*
X00608460Y01248921D02*
D03*
X01162270Y01019525D02*
D03*
X01169540Y01037079D02*
D03*
D79*
X00723900Y01270000D02*
D03*
X00749300D02*
D03*
X00774700D02*
D03*
X00800100D02*
D03*
Y01352550D02*
D03*
X00774700D02*
D03*
X00749300D02*
D03*
X00723900D02*
D03*
D80*
X00868680Y01273240D02*
D03*
X00859180Y01297240D02*
D03*
X00878180D02*
D03*
X00924560Y01273240D02*
D03*
X00915060Y01297240D02*
D03*
X00934060D02*
D03*
X00980440Y01273240D02*
D03*
X00970940Y01297240D02*
D03*
X00989940D02*
D03*
D81*
X00865463Y01025471D02*
D03*
X00865417Y01006471D02*
D03*
X00841417Y01006529D02*
D03*
X00841440Y01016029D02*
D03*
X00841463Y01025529D02*
D03*
D82*
X00832740Y00789516D02*
D03*
X00830748Y00814838D02*
D03*
X00828755Y00840160D02*
D03*
X00826762Y00865481D02*
D03*
X00993885Y00878634D02*
D03*
X00995878Y00853313D02*
D03*
X00997871Y00827991D02*
D03*
D83*
X00999864Y00802669D02*
D03*
D84*
X00922970Y00975840D02*
D03*
X00946470D02*
D03*
D85*
X00864000Y01068000D02*
D03*
X00889000D02*
D03*
X00914000D02*
D03*
D86*
X00929000Y01213000D02*
D03*
X00909000D02*
D03*
X00889000D02*
D03*
X00869000D02*
D03*
D87*
X00849000D02*
D03*
D88*
X00945000Y01143000D02*
D03*
X00833000D02*
D03*
D89*
X01130300Y01206500D02*
D03*
X00834390Y00955040D02*
D03*
X00660400Y01290320D02*
D03*
D90*
X01084341Y00875907D02*
D03*
X01074382Y00840483D02*
D03*
X01048258Y00883115D02*
D03*
X00786164Y00835445D02*
D03*
X00730684Y00832288D02*
D03*
X00757016Y00883967D02*
D03*
D91*
X01054100Y01238250D02*
D03*
D92*
X01028700D02*
D03*
X01003300D02*
D03*
X00977900D02*
D03*
X00952500D02*
D03*
X00927100D02*
D03*
X00901700D02*
D03*
X00876300D02*
D03*
X00850900D02*
D03*
X00825500D02*
D03*
X00800100D02*
D03*
X00774700D02*
D03*
X00749300D02*
D03*
X00723900D02*
D03*
Y01390650D02*
D03*
X00749300D02*
D03*
X00774700D02*
D03*
X00800100D02*
D03*
X00825500D02*
D03*
X00850900D02*
D03*
X00876300D02*
D03*
X00901700D02*
D03*
X00927100D02*
D03*
X00952500D02*
D03*
X00977900D02*
D03*
X01003300D02*
D03*
X01028700D02*
D03*
X01054100D02*
D03*
D93*
X00755650Y00981710D02*
D03*
D94*
X00730250D02*
D03*
X00704850D02*
D03*
D95*
X01130300Y01115060D02*
D03*
X00899160Y00990600D02*
D03*
X00889000Y00914400D02*
D03*
X01000760Y00909320D02*
D03*
X01168400Y00934720D02*
D03*
X01198880Y01082040D02*
D03*
X01234440Y01209040D02*
D03*
X01153160Y01300480D02*
D03*
X01097280Y01427480D02*
D03*
X00975360Y01488440D02*
D03*
X00838200Y01493520D02*
D03*
X00706120Y01447800D02*
D03*
X00782320Y01417320D02*
D03*
X00853440Y01442720D02*
D03*
X00949960Y01351280D02*
D03*
X00899160D02*
D03*
X00701040Y00939800D02*
D03*
X00949960Y01203960D02*
D03*
Y01183640D02*
D03*
X00939800Y00909320D02*
D03*
X00980440Y00904240D02*
D03*
X00927100Y01008380D02*
D03*
X00826770Y01052830D02*
D03*
X00660400Y01229360D02*
D03*
X00808990Y01183640D02*
D03*
X00858520Y01181100D02*
D03*
X00868680Y01127760D02*
D03*
X00896620Y01275080D02*
D03*
X00951230Y01285240D02*
D03*
X00615731Y00982760D02*
D03*
X00598170Y01203960D02*
D03*
X00697230Y01334770D02*
D03*
X01023590Y01090900D02*
D03*
X01004570Y01120140D02*
D03*
X01040130Y01211580D02*
D03*
X00805180Y01052830D02*
D03*
X00831850Y01352550D02*
D03*
X00914400Y00906780D02*
D03*
X00984250Y00986790D02*
D03*
X00924560Y01422400D02*
D03*
X00566420Y01193800D02*
D03*
X00635000Y01176020D02*
D03*
M02*
