M48
;Layer_Color=9474304
;FILE_FORMAT=4:4
METRIC
;TYPE=PLATED
T1F00S00C0.7112
T2F00S00C1.0160
T3F00S00C1.1000
T4F00S00C1.2000
T5F00S00C1.2500
T6F00S00C1.4000
T7F00S00C1.6000
T8F00S00C2.1500
;TYPE=NON_PLATED
T9F00S00C3.2766
%
T01
X00615731Y00982760
X00701040Y00939800
X00635000Y01176020
X00808990Y01183640
X00858520Y01181100
X00868680Y01127760
X00826770Y01052830
X00805180
X00899160Y00990600
X00927100Y01008380
X00984250Y00986790
X00980440Y00904240
X01000760Y00909320
X00939800
X00914400Y00906780
X00889000Y00914400
X01168400Y00934720
X01130300Y01115060
X01004570Y01120140
X01023590Y01090900
X00949960Y01183640
X01198880Y01082040
X01234440Y01209040
X01153160Y01300480
X01097280Y01427480
X00924560Y01422400
X00853440Y01442720
X00838200Y01493520
X00975360Y01488440
X00949960Y01351280
X00899160
X00831850Y01352550
X00896620Y01275080
X00951230Y01285240
X00949960Y01203960
X01040130Y01211580
X00660400Y01229360
X00598170Y01203960
X00566420Y01193800
X00697230Y01334770
X00706120Y01447800
X00782320Y01417320
T02
X00800100Y01238250
X00825500
X00850900
X00876300
X00901700
X00927100
X00952500
X00977900
X01003300
X01028700
X01054100
Y01390650
X01028700
X01003300
X00977900
X00952500
X00927100
X00901700
X00876300
X00850900
X00825500
X00800100
X00774700
X00749300
X00723900
Y01238250
X00749300
X00774700
T03
X00849000Y01213000
X00869000
X00889000
X00909000
X00929000
T04
X00864000Y01068000
X00889000
X00914000
T05
X00704850Y00981710
X00730250
X00755650
T06
X01074382Y00840483
X01084341Y00875907
X01048258Y00883115
T07
X00730684Y00832288
X00786164Y00835445
X00757016Y00883967
T08
X00833000Y01143000
X00945000
T09
X00834390Y00955040
X01130300Y01206500
X00660400Y01290320
M30
