G04 Layer_Color=16711935*
%FSAX44Y44*%
%MOMM*%
G71*
G01*
G75*
%ADD85C,1.9812*%
%ADD86C,1.7032*%
%ADD87R,1.7032X1.7032*%
%ADD88C,2.9532*%
%ADD89C,5.7912*%
%ADD90C,2.4032*%
%ADD91R,1.7272X1.7272*%
%ADD92C,1.7272*%
%ADD93R,2.2032X2.2032*%
%ADD94C,2.2032*%
%ADD95C,1.4732*%
%ADD96R,2.4032X2.8032*%
%ADD97R,2.8032X2.4032*%
%ADD98R,12.7032X14.9532*%
D85*
X00864000Y01068000D02*
D03*
X00889000D02*
D03*
X00914000D02*
D03*
D86*
X00929000Y01213000D02*
D03*
X00909000D02*
D03*
X00889000D02*
D03*
X00869000D02*
D03*
D87*
X00849000D02*
D03*
D88*
X00945000Y01143000D02*
D03*
X00833000D02*
D03*
D89*
X01130300Y01206500D02*
D03*
X00834390Y00955040D02*
D03*
X00660400Y01290320D02*
D03*
D90*
X01084341Y00875907D02*
D03*
X01074382Y00840483D02*
D03*
X01048258Y00883115D02*
D03*
X00786164Y00835445D02*
D03*
X00730684Y00832288D02*
D03*
X00757016Y00883967D02*
D03*
D91*
X01054100Y01238250D02*
D03*
D92*
X01028700D02*
D03*
X01003300D02*
D03*
X00977900D02*
D03*
X00952500D02*
D03*
X00927100D02*
D03*
X00901700D02*
D03*
X00876300D02*
D03*
X00850900D02*
D03*
X00825500D02*
D03*
X00800100D02*
D03*
X00774700D02*
D03*
X00749300D02*
D03*
X00723900D02*
D03*
Y01390650D02*
D03*
X00749300D02*
D03*
X00774700D02*
D03*
X00800100D02*
D03*
X00825500D02*
D03*
X00850900D02*
D03*
X00876300D02*
D03*
X00901700D02*
D03*
X00927100D02*
D03*
X00952500D02*
D03*
X00977900D02*
D03*
X01003300D02*
D03*
X01028700D02*
D03*
X01054100D02*
D03*
D93*
X00755650Y00981710D02*
D03*
D94*
X00730250D02*
D03*
X00704850D02*
D03*
D95*
X01130300Y01115060D02*
D03*
X00899160Y00990600D02*
D03*
X00889000Y00914400D02*
D03*
X01000760Y00909320D02*
D03*
X01168400Y00934720D02*
D03*
X01198880Y01082040D02*
D03*
X01234440Y01209040D02*
D03*
X01153160Y01300480D02*
D03*
X01097280Y01427480D02*
D03*
X00975360Y01488440D02*
D03*
X00838200Y01493520D02*
D03*
X00706120Y01447800D02*
D03*
X00782320Y01417320D02*
D03*
X00853440Y01442720D02*
D03*
X00949960Y01351280D02*
D03*
X00899160D02*
D03*
X00701040Y00939800D02*
D03*
X00949960Y01203960D02*
D03*
Y01183640D02*
D03*
X00939800Y00909320D02*
D03*
X00980440Y00904240D02*
D03*
X00927100Y01008380D02*
D03*
X00826770Y01052830D02*
D03*
X00660400Y01229360D02*
D03*
X00808990Y01183640D02*
D03*
X00858520Y01181100D02*
D03*
X00868680Y01127760D02*
D03*
X00896620Y01275080D02*
D03*
X00951230Y01285240D02*
D03*
X00615731Y00982760D02*
D03*
X00598170Y01203960D02*
D03*
X00697230Y01334770D02*
D03*
X01023590Y01090900D02*
D03*
X01004570Y01120140D02*
D03*
X01040130Y01211580D02*
D03*
X00805180Y01052830D02*
D03*
X00831850Y01352550D02*
D03*
X00914400Y00906780D02*
D03*
X00984250Y00986790D02*
D03*
X00924560Y01422400D02*
D03*
X00566420Y01193800D02*
D03*
X00635000Y01176020D02*
D03*
D96*
X00636270Y01007510D02*
D03*
Y01057510D02*
D03*
D97*
X00814470Y01022350D02*
D03*
X00864470D02*
D03*
D98*
X00730250Y01117460D02*
D03*
M02*
